<svg xmlns="http://www.w3.org/2000/svg" viewBox="0 0 1140 360" enable-background="new 0 0 1140 360"><g id="svgg"><path id="path0" d="M0.000 94.200 L 0.000 188.400 200.000 188.400 L 400.000 188.400 400.000 94.200 L 400.000 0.000 200.000 0.000 L 0.000 0.000 0.000 94.200 M155.819 64.658 C 156.792 65.708,156.800 65.783,156.800 73.658 C 156.800 80.957,157.005 82.486,157.809 81.185 C 158.205 80.545,162.040 78.800,163.051 78.800 C 163.547 78.800,164.064 78.620,164.200 78.400 C 164.342 78.170,166.463 78.000,169.200 78.000 C 171.937 78.000,174.058 78.170,174.200 78.400 C 174.336 78.620,174.853 78.800,175.349 78.800 C 176.482 78.800,179.914 80.453,181.083 81.562 C 181.569 82.023,182.133 82.400,182.337 82.400 C 182.672 82.400,184.270 84.074,186.092 86.332 C 187.440 88.004,188.647 90.222,189.120 91.900 C 189.384 92.835,189.796 94.280,190.035 95.111 C 190.677 97.343,190.025 105.290,189.156 105.827 C 188.960 105.948,188.800 106.393,188.800 106.816 C 188.800 109.349,182.862 115.915,178.800 117.874 C 171.853 121.223,165.809 121.186,159.342 117.755 L 156.725 116.366 155.708 117.383 C 154.406 118.685,153.182 118.673,151.855 117.345 L 150.800 116.291 150.800 90.871 L 150.800 65.452 151.670 64.526 C 152.858 63.261,154.575 63.316,155.819 64.658 M300.731 64.340 C 301.545 65.046,301.589 65.470,301.692 73.612 C 301.788 81.192,301.867 82.078,302.400 81.552 C 303.319 80.646,307.245 78.800,308.255 78.800 C 308.749 78.800,309.264 78.620,309.400 78.400 C 309.542 78.170,311.663 78.000,314.400 78.000 C 317.137 78.000,319.258 78.170,319.400 78.400 C 319.536 78.620,319.999 78.800,320.429 78.800 C 320.859 78.800,321.523 78.960,321.905 79.156 C 322.287 79.351,323.275 79.842,324.100 80.247 C 324.925 80.651,325.600 81.121,325.600 81.291 C 325.600 81.461,325.884 81.600,326.231 81.600 C 327.717 81.600,333.600 88.815,333.600 90.638 C 333.600 90.947,333.760 91.200,333.955 91.200 C 334.150 91.200,334.405 91.695,334.522 92.300 C 334.639 92.905,334.925 94.120,335.158 95.000 C 335.984 98.123,335.084 106.800,333.935 106.800 C 333.751 106.800,333.600 107.053,333.600 107.362 C 333.600 109.623,328.029 115.926,324.600 117.544 C 323.500 118.063,322.303 118.638,321.939 118.823 C 318.133 120.753,308.629 120.720,306.620 118.769 C 306.411 118.566,305.916 118.400,305.520 118.400 C 305.124 118.400,304.800 118.220,304.800 118.000 C 304.800 117.780,304.522 117.600,304.183 117.600 C 303.844 117.600,303.205 117.263,302.763 116.851 C 301.974 116.116,301.938 116.124,300.810 117.251 C 299.384 118.678,298.411 118.702,297.055 117.345 L 296.000 116.291 296.000 90.999 C 296.000 66.018,296.010 65.695,296.829 64.654 C 297.821 63.393,299.485 63.259,300.731 64.340 M90.600 78.400 C 90.736 78.620,91.251 78.800,91.745 78.800 C 93.282 78.800,97.166 80.919,99.260 82.900 C 100.182 83.772,100.224 85.890,99.338 86.869 C 98.552 87.737,95.917 87.864,95.255 87.066 C 94.743 86.450,92.052 85.121,89.972 84.456 C 87.158 83.558,80.570 84.097,79.341 85.326 C 79.190 85.477,78.822 85.600,78.523 85.600 C 78.035 85.600,76.135 87.104,74.429 88.840 C 69.132 94.230,69.091 103.477,74.338 109.306 C 76.056 111.215,79.622 113.600,80.757 113.600 C 81.195 113.600,81.664 113.780,81.800 114.000 C 81.936 114.220,83.646 114.400,85.600 114.400 C 87.554 114.400,89.264 114.220,89.400 114.000 C 89.536 113.780,89.969 113.600,90.362 113.600 C 91.290 113.600,93.568 112.495,94.652 111.518 C 96.793 109.589,100.000 110.775,100.000 113.496 C 100.000 115.295,96.304 118.400,94.162 118.400 C 93.853 118.400,93.600 118.550,93.600 118.734 C 93.600 119.408,88.750 120.400,85.456 120.400 C 82.346 120.400,80.333 119.976,77.600 118.744 C 77.050 118.496,76.153 118.092,75.606 117.846 C 75.059 117.601,74.268 117.130,73.849 116.800 C 71.806 115.194,70.170 113.755,69.891 113.320 C 69.721 113.056,69.361 112.606,69.090 112.320 C 68.279 111.462,66.400 108.448,66.400 108.003 C 66.400 107.775,66.242 107.277,66.049 106.895 C 64.307 103.447,64.307 94.953,66.049 91.505 C 66.242 91.123,66.400 90.538,66.400 90.205 C 66.400 89.872,66.580 89.600,66.800 89.600 C 67.020 89.600,67.200 89.399,67.200 89.154 C 67.200 88.506,70.005 84.766,71.344 83.627 C 71.973 83.092,72.725 82.417,73.015 82.127 C 73.306 81.837,73.736 81.600,73.971 81.600 C 74.207 81.600,74.400 81.452,74.400 81.270 C 74.400 80.805,78.859 78.800,79.895 78.800 C 80.367 78.800,80.864 78.620,81.000 78.400 C 81.141 78.171,83.196 78.000,85.800 78.000 C 88.404 78.000,90.459 78.171,90.600 78.400 M128.600 78.400 C 128.736 78.620,129.289 78.800,129.829 78.800 C 130.369 78.800,131.123 78.959,131.505 79.153 C 131.887 79.348,132.740 79.752,133.400 80.052 C 136.343 81.390,141.600 85.896,141.600 87.081 C 141.600 87.366,141.751 87.600,141.935 87.600 C 142.356 87.600,144.400 91.600,144.400 92.426 C 144.400 92.764,144.602 93.242,144.848 93.488 C 145.134 93.774,145.297 95.846,145.297 99.200 C 145.297 102.554,145.134 104.626,144.848 104.912 C 144.602 105.158,144.400 105.656,144.400 106.019 C 144.400 106.381,144.100 107.290,143.734 108.039 C 136.994 121.825,119.599 124.693,109.188 113.733 C 107.655 112.119,106.400 110.528,106.400 110.199 C 106.400 109.869,106.264 109.600,106.098 109.600 C 105.931 109.600,105.553 109.015,105.257 108.300 C 104.961 107.585,104.429 106.370,104.073 105.600 C 103.103 103.499,103.157 94.793,104.154 92.600 C 104.554 91.720,105.083 90.550,105.329 90.000 C 106.034 88.421,107.807 85.925,109.307 84.400 C 111.328 82.344,111.945 81.905,115.200 80.213 C 117.756 78.885,117.983 78.800,118.971 78.800 C 119.511 78.800,120.064 78.620,120.200 78.400 C 120.338 78.177,122.196 78.000,124.400 78.000 C 126.604 78.000,128.462 78.177,128.600 78.400 M197.316 79.300 C 197.842 80.015,198.508 81.230,198.796 82.000 C 199.084 82.770,199.581 84.030,199.901 84.800 C 200.220 85.570,200.664 86.650,200.887 87.200 C 201.111 87.750,201.452 88.513,201.647 88.895 C 201.841 89.277,202.000 89.799,202.000 90.056 C 202.000 90.497,203.580 94.185,204.416 95.695 C 204.627 96.077,204.800 96.664,204.800 97.000 C 204.800 97.336,204.959 97.923,205.153 98.305 C 205.491 98.968,206.136 100.471,206.826 102.200 C 207.002 102.640,207.446 103.720,207.814 104.600 C 209.024 107.500,209.140 107.795,209.283 108.337 C 209.470 109.046,210.284 107.367,211.828 103.087 C 212.208 102.035,212.672 101.079,212.859 100.963 C 213.047 100.848,213.200 100.313,213.200 99.776 C 213.200 99.239,213.380 98.800,213.600 98.800 C 213.820 98.800,214.000 98.438,214.000 97.995 C 214.000 97.552,214.159 96.877,214.353 96.495 C 214.548 96.113,214.930 95.260,215.202 94.600 C 215.475 93.940,215.946 92.922,216.249 92.338 C 216.640 91.585,216.800 89.657,216.800 85.693 C 216.800 78.543,218.073 76.574,221.238 78.827 L 222.400 79.654 222.400 85.233 C 222.400 88.301,222.571 91.123,222.781 91.505 C 222.990 91.887,223.455 92.920,223.814 93.800 C 224.173 94.680,224.632 95.713,224.834 96.095 C 225.035 96.477,225.200 97.152,225.200 97.595 C 225.200 98.038,225.380 98.400,225.600 98.400 C 225.820 98.400,226.000 98.749,226.000 99.176 C 226.000 99.603,226.160 100.052,226.356 100.173 C 226.551 100.294,226.833 100.877,226.982 101.469 C 227.130 102.062,227.600 103.267,228.026 104.148 C 228.452 105.029,228.800 106.066,228.800 106.452 C 228.800 106.837,228.980 107.264,229.200 107.400 C 229.420 107.536,229.614 108.042,229.632 108.524 C 229.652 109.077,229.736 109.179,229.861 108.800 C 230.130 107.984,230.817 106.350,231.247 105.505 C 231.441 105.123,231.600 104.633,231.600 104.416 C 231.600 104.199,232.069 102.982,232.641 101.711 C 234.053 98.579,234.265 98.052,234.866 96.200 C 235.151 95.320,235.793 93.808,236.292 92.840 C 236.791 91.873,237.200 90.748,237.200 90.340 C 237.200 89.933,237.380 89.600,237.600 89.600 C 237.820 89.600,238.000 89.238,238.000 88.795 C 238.000 88.352,238.159 87.677,238.353 87.295 C 238.548 86.913,238.933 86.060,239.209 85.400 C 239.486 84.740,239.938 83.660,240.214 83.000 C 241.484 79.963,241.819 79.355,242.583 78.709 C 245.542 76.205,248.202 80.146,246.360 84.304 C 245.559 86.113,245.242 86.873,244.447 88.900 C 244.252 89.395,243.622 90.970,243.046 92.400 C 242.469 93.830,241.998 95.225,241.999 95.500 C 241.999 95.775,241.820 96.000,241.600 96.000 C 241.380 96.000,241.200 96.450,241.200 97.000 C 241.200 97.550,241.020 98.000,240.800 98.000 C 240.580 98.000,240.400 98.414,240.400 98.920 C 240.400 99.426,240.249 100.011,240.064 100.220 C 239.879 100.429,239.492 101.230,239.204 102.000 C 238.916 102.770,238.419 104.030,238.099 104.800 C 237.235 106.883,236.933 107.656,236.377 109.200 C 235.806 110.787,234.140 114.650,233.575 115.695 C 233.369 116.077,233.200 116.739,233.200 117.166 C 233.200 120.555,228.058 120.053,226.871 116.548 C 226.287 114.821,226.054 114.244,224.830 111.483 C 224.362 110.429,223.698 108.809,223.353 107.883 C 223.008 106.957,222.562 105.795,222.363 105.300 C 222.163 104.805,221.838 103.995,221.641 103.500 C 221.443 103.005,220.972 101.898,220.594 101.040 L 219.906 99.480 218.956 101.440 C 218.434 102.518,218.006 103.715,218.004 104.100 C 218.002 104.485,217.820 104.800,217.600 104.800 C 217.380 104.800,217.200 105.162,217.200 105.605 C 217.200 106.048,217.035 106.723,216.834 107.105 C 216.011 108.668,214.400 112.449,214.400 112.816 C 214.400 113.033,214.220 113.568,214.000 114.005 C 213.780 114.442,213.420 115.158,213.200 115.595 C 212.980 116.032,212.800 116.618,212.800 116.899 C 212.800 117.904,210.799 119.600,209.612 119.600 C 207.936 119.600,207.250 118.746,205.600 114.600 C 205.247 113.714,204.179 111.147,203.519 109.600 C 203.285 109.050,202.961 108.240,202.800 107.800 C 202.639 107.360,202.323 106.550,202.097 106.000 C 201.872 105.450,201.007 103.290,200.175 101.200 C 199.344 99.110,198.514 97.229,198.332 97.020 C 198.149 96.811,198.000 96.314,198.000 95.915 C 198.000 95.516,197.831 94.877,197.625 94.495 C 197.060 93.450,195.394 89.587,194.823 88.000 C 194.174 86.197,193.595 84.775,193.161 83.917 C 191.078 79.807,194.715 75.765,197.316 79.300 M274.372 78.449 C 275.157 78.696,276.113 79.056,276.495 79.249 C 276.877 79.442,277.376 79.600,277.604 79.600 C 280.278 79.600,287.553 87.009,288.799 91.000 C 289.074 91.880,289.456 92.913,289.649 93.295 C 290.246 94.477,290.078 100.379,289.429 101.029 C 288.951 101.506,286.027 101.600,271.629 101.600 L 254.400 101.600 254.400 102.646 C 254.400 103.659,256.293 107.664,256.900 107.933 C 257.065 108.007,257.200 108.256,257.200 108.487 C 257.200 109.469,262.982 113.600,264.357 113.600 C 264.795 113.600,265.264 113.780,265.400 114.000 C 266.533 115.834,276.147 113.610,279.083 110.835 C 279.569 110.376,280.154 110.000,280.383 110.000 C 280.612 110.000,280.800 109.820,280.800 109.600 C 280.800 109.017,283.280 109.135,284.100 109.757 C 285.275 110.649,285.044 113.491,283.700 114.681 C 282.074 116.122,278.469 118.400,277.816 118.400 C 277.503 118.400,277.148 118.560,277.027 118.756 C 275.675 120.944,261.688 120.355,259.600 118.022 C 259.490 117.899,258.860 117.533,258.200 117.208 C 256.684 116.462,251.200 110.956,251.200 110.180 C 251.200 109.861,251.020 109.600,250.800 109.600 C 250.580 109.600,250.400 109.240,250.400 108.800 C 250.400 108.360,250.220 108.000,250.000 108.000 C 249.780 108.000,249.600 107.638,249.600 107.195 C 249.600 106.752,249.432 106.077,249.227 105.695 C 247.663 102.787,247.656 96.286,249.212 92.200 C 250.656 88.407,254.903 82.400,256.141 82.400 C 256.302 82.400,256.791 82.067,257.229 81.659 C 258.255 80.703,262.135 78.802,263.075 78.794 C 263.474 78.791,264.070 78.613,264.400 78.400 C 265.230 77.864,272.626 77.900,274.372 78.449 M120.000 84.459 C 115.537 86.268,111.732 89.471,110.719 92.274 C 110.455 93.003,110.119 93.600,109.972 93.600 C 109.280 93.600,108.870 99.734,109.384 102.400 C 110.274 107.017,116.254 113.600,119.557 113.600 C 119.995 113.600,120.464 113.780,120.600 114.000 C 120.736 114.220,122.446 114.400,124.400 114.400 C 126.354 114.400,128.064 114.220,128.200 114.000 C 128.336 113.780,128.805 113.600,129.243 113.600 C 130.164 113.600,134.250 111.083,135.342 109.843 C 136.691 108.312,138.400 105.665,138.400 105.108 C 138.400 104.807,138.622 104.338,138.894 104.066 C 139.562 103.398,139.545 94.585,138.875 93.915 C 138.614 93.654,138.400 93.116,138.400 92.720 C 138.400 92.324,138.220 92.000,138.000 92.000 C 137.780 92.000,137.600 91.746,137.600 91.436 C 137.600 90.919,134.111 87.134,132.773 86.200 C 129.965 84.240,122.914 83.279,120.000 84.459 M164.400 84.476 C 161.440 85.724,159.970 86.616,158.466 88.075 L 156.800 89.692 156.800 99.031 L 156.800 108.369 158.393 109.947 C 160.160 111.696,163.305 113.600,164.427 113.600 C 164.826 113.600,165.264 113.780,165.400 114.000 C 165.536 114.220,167.246 114.400,169.200 114.400 C 171.154 114.400,172.864 114.220,173.000 114.000 C 173.136 113.780,173.605 113.600,174.043 113.600 C 175.418 113.600,181.200 109.469,181.200 108.487 C 181.200 108.256,181.335 108.007,181.500 107.933 C 182.157 107.641,183.553 104.446,184.197 101.762 C 185.310 97.124,183.644 91.995,179.775 88.145 C 177.876 86.256,177.095 85.767,173.881 84.456 C 172.493 83.890,165.756 83.904,164.400 84.476 M264.000 84.657 C 263.230 84.965,262.285 85.325,261.900 85.456 C 261.515 85.586,261.200 85.852,261.200 86.047 C 261.200 86.241,260.984 86.400,260.720 86.400 C 259.192 86.400,254.015 94.019,254.566 95.456 C 254.852 96.200,284.000 96.272,284.000 95.528 C 284.000 91.588,279.575 86.743,273.881 84.451 C 272.335 83.828,265.724 83.966,264.000 84.657 M309.600 84.476 C 306.471 85.795,305.040 86.709,303.413 88.427 L 301.600 90.342 301.600 99.149 L 301.600 107.956 303.567 109.878 C 304.649 110.935,306.404 112.223,307.467 112.740 C 308.530 113.258,309.713 113.843,310.095 114.040 C 311.043 114.532,317.893 114.497,318.200 114.000 C 318.336 113.780,318.794 113.600,319.218 113.600 C 321.464 113.600,326.444 109.124,328.030 105.678 C 328.506 104.645,329.054 103.487,329.248 103.105 C 329.751 102.114,329.684 96.248,329.154 94.919 C 327.924 91.829,327.051 90.357,325.497 88.755 C 323.026 86.205,322.394 85.782,319.081 84.450 C 317.686 83.889,310.948 83.907,309.600 84.476 M181.400 142.200 L 181.400 151.000 178.700 151.118 L 176.000 151.237 176.000 142.200 L 176.000 133.163 178.700 133.282 L 181.400 133.400 181.400 142.200 M141.000 134.400 C 141.136 134.620,141.581 134.800,141.990 134.800 C 143.311 134.800,145.857 138.151,146.148 140.273 C 146.732 144.536,145.175 148.719,142.543 149.956 C 141.914 150.252,141.087 150.652,140.705 150.847 C 140.323 151.041,137.848 151.200,135.205 151.200 L 130.400 151.200 130.400 142.600 L 130.400 134.000 135.576 134.000 C 138.596 134.000,140.856 134.167,141.000 134.400 M270.322 136.680 C 270.435 138.239,270.531 138.361,271.722 138.476 C 273.728 138.670,273.708 142.132,271.700 142.325 C 269.457 142.542,269.813 146.786,272.122 147.352 C 273.159 147.605,273.235 147.756,273.122 149.313 L 273.000 151.000 270.414 151.121 C 266.067 151.325,264.800 149.999,264.800 145.248 C 264.800 142.657,264.735 142.446,263.900 142.328 C 263.119 142.217,263.000 141.962,263.000 140.400 C 263.000 138.838,263.119 138.583,263.900 138.472 C 264.596 138.373,264.800 138.083,264.800 137.190 C 264.800 136.166,264.969 136.009,266.300 135.797 C 267.125 135.665,268.070 135.395,268.400 135.197 C 269.591 134.482,270.196 134.948,270.322 136.680 M136.000 142.575 L 136.000 147.200 137.186 147.200 C 141.258 147.200,141.355 138.471,137.287 138.075 L 136.000 137.949 136.000 142.575 M157.588 139.590 C 159.206 140.872,160.177 143.292,159.933 145.432 C 159.800 146.600,159.800 146.600,156.400 146.825 C 153.319 147.030,153.227 147.058,155.420 147.125 C 157.971 147.204,158.800 147.651,158.800 148.949 C 158.800 152.176,151.251 152.219,148.333 149.008 C 143.346 143.521,151.751 134.968,157.588 139.590 M166.320 138.880 C 166.693 139.253,166.907 139.253,167.280 138.880 C 169.261 136.899,174.015 139.434,174.546 142.755 C 175.039 145.833,173.583 150.380,172.100 150.395 C 171.825 150.398,171.600 150.580,171.600 150.800 C 171.600 151.020,170.610 151.200,169.400 151.200 C 168.190 151.200,167.200 151.020,167.200 150.800 C 167.200 148.718,166.406 151.147,166.317 153.500 L 166.200 156.600 163.600 156.600 L 161.000 156.600 160.892 148.010 C 160.832 143.285,160.872 139.190,160.979 138.910 C 161.234 138.246,165.661 138.221,166.320 138.880 M193.764 139.232 C 198.029 141.748,197.898 148.396,193.542 150.569 C 192.121 151.278,187.001 151.448,186.600 150.800 C 186.464 150.580,186.069 150.400,185.723 150.400 C 184.927 150.400,183.240 148.487,182.990 147.300 C 182.885 146.805,182.705 145.943,182.589 145.385 C 181.540 140.351,188.845 136.329,193.764 139.232 M203.121 139.500 C 203.351 140.105,203.648 141.258,203.781 142.061 C 204.112 144.072,205.200 144.471,205.200 142.582 C 205.200 141.816,205.367 140.877,205.571 140.495 C 205.775 140.113,206.039 139.485,206.158 139.100 C 206.390 138.352,210.924 138.030,211.357 138.731 C 211.544 139.032,211.098 140.398,207.806 149.600 C 205.830 155.122,204.135 156.800,200.533 156.800 C 198.072 156.800,197.600 156.336,197.600 153.920 C 197.600 151.942,197.871 151.689,199.217 152.409 C 199.762 152.701,200.214 152.673,200.791 152.313 C 202.001 151.557,201.922 151.017,199.943 146.504 C 199.535 145.572,199.200 144.699,199.200 144.565 C 199.200 144.342,198.961 143.771,197.382 140.216 C 196.648 138.564,196.883 138.400,199.975 138.400 C 202.583 138.400,202.721 138.448,203.121 139.500 M217.947 139.092 C 218.314 139.747,218.374 139.747,219.099 139.092 C 220.088 138.197,223.278 138.170,224.614 139.046 C 225.522 139.641,225.678 139.641,226.586 139.046 C 228.506 137.788,231.358 138.177,232.771 139.891 C 233.995 141.377,234.000 141.401,234.000 146.291 L 234.000 151.200 231.200 151.200 L 228.400 151.200 228.394 147.300 C 228.383 140.313,226.282 140.170,226.086 147.143 L 225.972 151.200 223.186 151.200 L 220.400 151.200 220.400 147.433 C 220.400 143.516,220.201 142.400,219.501 142.400 C 218.461 142.400,218.025 143.900,218.013 147.518 L 218.000 151.237 215.300 151.118 L 212.600 151.000 212.489 145.218 C 212.427 142.039,212.467 139.204,212.576 138.918 C 212.900 138.075,217.461 138.222,217.947 139.092 M245.588 139.590 C 247.206 140.872,248.177 143.292,247.933 145.432 C 247.800 146.600,247.800 146.600,244.400 146.825 C 241.319 147.030,241.227 147.058,243.420 147.125 C 249.037 147.298,247.996 151.200,242.333 151.200 C 236.947 151.200,234.842 149.144,235.164 144.200 C 235.488 139.243,241.688 136.501,245.588 139.590 M254.421 139.019 C 255.038 139.578,255.165 139.578,255.724 139.019 C 256.581 138.162,259.578 138.231,260.600 139.132 C 262.169 140.514,262.400 141.447,262.400 146.395 L 262.400 151.200 259.600 151.200 L 256.800 151.200 256.794 147.300 C 256.783 140.313,254.682 140.170,254.486 147.143 L 254.372 151.200 251.586 151.200 L 248.800 151.200 248.800 145.067 C 248.800 141.693,248.920 138.813,249.067 138.667 C 249.612 138.121,253.728 138.392,254.421 139.019 M152.814 142.374 C 152.214 143.495,152.277 143.600,153.545 143.600 C 154.550 143.600,154.666 143.478,154.498 142.600 C 154.270 141.409,153.393 141.292,152.814 142.374 M240.896 142.395 C 240.202 143.506,240.252 143.600,241.545 143.600 C 242.550 143.600,242.666 143.478,242.498 142.600 C 242.268 141.397,241.575 141.308,240.896 142.395 M166.880 142.880 C 166.204 143.556,166.281 146.204,166.995 146.796 C 168.153 147.757,168.800 146.974,168.800 144.613 C 168.800 142.310,168.090 141.670,166.880 142.880 M188.574 143.797 C 188.178 145.908,188.630 147.200,189.765 147.200 C 190.780 147.200,191.200 146.539,191.200 144.941 C 191.200 142.301,189.032 141.357,188.574 143.797 " stroke="none" fill="#000000" fill-rule="evenodd"></path><path id="path1" d="M151.670 64.526 L 150.800 65.452 150.800 90.871 L 150.800 116.291 151.855 117.345 C 153.182 118.673,154.406 118.685,155.708 117.383 L 156.725 116.366 159.342 117.755 C 165.809 121.186,171.853 121.223,178.800 117.874 C 182.862 115.915,188.800 109.349,188.800 106.816 C 188.800 106.393,188.960 105.948,189.156 105.827 C 190.025 105.290,190.677 97.343,190.035 95.111 C 189.796 94.280,189.384 92.835,189.120 91.900 C 188.647 90.222,187.440 88.004,186.092 86.332 C 184.270 84.074,182.672 82.400,182.337 82.400 C 182.133 82.400,181.569 82.023,181.083 81.562 C 179.914 80.453,176.482 78.800,175.349 78.800 C 174.853 78.800,174.336 78.620,174.200 78.400 C 174.058 78.170,171.937 78.000,169.200 78.000 C 166.463 78.000,164.342 78.170,164.200 78.400 C 164.064 78.620,163.547 78.800,163.051 78.800 C 162.040 78.800,158.205 80.545,157.809 81.185 C 157.005 82.486,156.800 80.957,156.800 73.658 C 156.800 65.783,156.792 65.708,155.819 64.658 C 154.575 63.316,152.858 63.261,151.670 64.526 M296.829 64.654 C 296.010 65.695,296.000 66.018,296.000 90.999 L 296.000 116.291 297.055 117.345 C 298.411 118.702,299.384 118.678,300.810 117.251 C 301.938 116.124,301.974 116.116,302.763 116.851 C 303.205 117.263,303.844 117.600,304.183 117.600 C 304.522 117.600,304.800 117.780,304.800 118.000 C 304.800 118.220,305.124 118.400,305.520 118.400 C 305.916 118.400,306.411 118.566,306.620 118.769 C 308.629 120.720,318.133 120.753,321.939 118.823 C 322.303 118.638,323.500 118.063,324.600 117.544 C 328.029 115.926,333.600 109.623,333.600 107.362 C 333.600 107.053,333.751 106.800,333.935 106.800 C 335.084 106.800,335.984 98.123,335.158 95.000 C 334.925 94.120,334.639 92.905,334.522 92.300 C 334.405 91.695,334.150 91.200,333.955 91.200 C 333.760 91.200,333.600 90.947,333.600 90.638 C 333.600 88.815,327.717 81.600,326.231 81.600 C 325.884 81.600,325.600 81.461,325.600 81.291 C 325.600 81.121,324.925 80.651,324.100 80.247 C 323.275 79.842,322.287 79.351,321.905 79.156 C 321.523 78.960,320.859 78.800,320.429 78.800 C 319.999 78.800,319.536 78.620,319.400 78.400 C 319.258 78.170,317.137 78.000,314.400 78.000 C 311.663 78.000,309.542 78.170,309.400 78.400 C 309.264 78.620,308.749 78.800,308.255 78.800 C 307.245 78.800,303.319 80.646,302.400 81.552 C 301.867 82.078,301.788 81.192,301.692 73.612 C 301.589 65.470,301.545 65.046,300.731 64.340 C 299.485 63.259,297.821 63.393,296.829 64.654 M155.200 64.800 C 155.946 65.546,156.000 66.138,156.006 73.500 C 156.013 82.333,156.143 82.909,157.859 81.728 C 172.211 71.848,192.236 84.662,189.575 102.023 C 187.300 116.865,169.795 124.799,157.944 116.360 L 156.723 115.491 155.745 116.545 C 154.462 117.929,152.728 117.960,151.846 116.614 C 151.269 115.733,151.200 112.981,151.200 90.796 L 151.200 65.964 152.182 64.982 C 153.373 63.791,154.144 63.744,155.200 64.800 M300.311 64.623 C 301.181 65.232,301.200 65.420,301.200 73.599 C 301.200 82.793,301.237 82.917,303.512 81.411 C 311.110 76.383,322.290 77.805,329.043 84.659 C 345.430 101.290,325.484 128.045,304.736 117.264 L 301.672 115.671 300.766 116.636 C 299.712 117.758,297.951 117.905,297.149 116.939 C 296.152 115.737,296.356 65.954,297.362 64.842 C 298.269 63.840,299.105 63.778,300.311 64.623 M81.000 78.400 C 80.864 78.620,80.367 78.800,79.895 78.800 C 78.859 78.800,74.400 80.805,74.400 81.270 C 74.400 81.452,74.207 81.600,73.971 81.600 C 73.736 81.600,73.306 81.837,73.015 82.127 C 72.725 82.417,71.973 83.092,71.344 83.627 C 70.005 84.766,67.200 88.506,67.200 89.154 C 67.200 89.399,67.020 89.600,66.800 89.600 C 66.580 89.600,66.400 89.872,66.400 90.205 C 66.400 90.538,66.242 91.123,66.049 91.505 C 64.307 94.953,64.307 103.447,66.049 106.895 C 66.242 107.277,66.400 107.775,66.400 108.003 C 66.400 108.448,68.279 111.462,69.090 112.320 C 69.361 112.606,69.721 113.056,69.891 113.320 C 70.170 113.755,71.806 115.194,73.849 116.800 C 74.268 117.130,75.059 117.601,75.606 117.846 C 76.153 118.092,77.050 118.496,77.600 118.744 C 80.333 119.976,82.346 120.400,85.456 120.400 C 88.843 120.400,93.600 119.402,93.600 118.692 C 93.600 118.484,93.285 118.440,92.900 118.594 C 74.915 125.790,57.754 104.409,68.398 88.069 C 75.099 77.784,90.181 75.122,98.377 82.779 C 101.736 85.917,98.408 88.451,94.308 85.877 C 87.867 81.835,79.203 82.836,74.258 88.196 C 72.988 89.572,71.200 92.318,71.200 92.892 C 71.200 93.193,70.975 93.665,70.700 93.940 C 69.688 94.952,70.074 103.065,71.255 105.600 C 75.340 114.372,86.134 117.556,94.276 112.393 C 97.208 110.533,99.616 110.890,99.587 113.180 C 99.570 114.599,98.885 115.366,96.185 116.992 C 93.596 118.551,93.759 118.915,96.411 117.500 C 99.831 115.676,100.951 113.453,99.470 111.428 C 98.737 110.426,95.804 110.481,94.652 111.518 C 93.568 112.495,91.290 113.600,90.362 113.600 C 89.969 113.600,89.536 113.780,89.400 114.000 C 89.264 114.220,87.554 114.400,85.600 114.400 C 83.646 114.400,81.936 114.220,81.800 114.000 C 81.664 113.780,81.195 113.600,80.757 113.600 C 79.622 113.600,76.056 111.215,74.338 109.306 C 69.091 103.477,69.132 94.230,74.429 88.840 C 76.135 87.104,78.035 85.600,78.523 85.600 C 78.822 85.600,79.190 85.477,79.341 85.326 C 80.570 84.097,87.158 83.558,89.972 84.456 C 92.052 85.121,94.743 86.450,95.255 87.066 C 95.917 87.864,98.552 87.737,99.338 86.869 C 100.224 85.890,100.182 83.772,99.260 82.900 C 97.166 80.919,93.282 78.800,91.745 78.800 C 91.251 78.800,90.736 78.620,90.600 78.400 C 90.459 78.171,88.404 78.000,85.800 78.000 C 83.196 78.000,81.141 78.171,81.000 78.400 M120.200 78.400 C 120.064 78.620,119.511 78.800,118.971 78.800 C 117.983 78.800,117.756 78.885,115.200 80.213 C 111.945 81.905,111.328 82.344,109.307 84.400 C 107.807 85.925,106.034 88.421,105.329 90.000 C 105.083 90.550,104.554 91.720,104.154 92.600 C 103.157 94.793,103.103 103.499,104.073 105.600 C 104.429 106.370,104.961 107.585,105.257 108.300 C 105.553 109.015,105.931 109.600,106.098 109.600 C 106.264 109.600,106.400 109.869,106.400 110.199 C 106.400 110.528,107.655 112.119,109.188 113.733 C 119.599 124.693,136.994 121.825,143.734 108.039 C 144.100 107.290,144.400 106.355,144.400 105.962 C 144.400 105.569,144.580 105.136,144.800 105.000 C 145.020 104.864,145.177 103.908,145.150 102.876 L 145.100 101.000 144.814 102.600 C 140.374 127.419,103.980 124.394,103.919 99.200 C 103.858 74.037,141.518 71.281,144.916 96.200 C 145.031 97.040,145.098 96.837,145.140 95.524 C 145.173 94.492,145.020 93.536,144.800 93.400 C 144.580 93.264,144.400 92.851,144.400 92.482 C 144.400 91.615,142.372 87.600,141.935 87.600 C 141.751 87.600,141.600 87.366,141.600 87.081 C 141.600 85.896,136.343 81.390,133.400 80.052 C 132.740 79.752,131.887 79.348,131.505 79.153 C 131.123 78.959,130.369 78.800,129.829 78.800 C 129.289 78.800,128.736 78.620,128.600 78.400 C 128.462 78.177,126.604 78.000,124.400 78.000 C 122.196 78.000,120.338 78.177,120.200 78.400 M193.194 79.099 C 192.313 80.219,192.299 82.217,193.161 83.917 C 193.646 84.876,194.167 86.157,195.439 89.520 C 196.046 91.127,196.690 92.532,196.871 92.644 C 197.436 92.993,197.314 92.603,195.603 88.600 C 192.288 80.845,192.214 79.000,195.215 79.000 C 196.939 79.000,197.492 80.051,202.789 93.400 C 204.797 98.460,206.635 103.050,206.873 103.600 C 207.112 104.150,207.449 104.960,207.622 105.400 C 208.866 108.556,209.396 109.564,209.668 109.292 C 210.160 108.800,213.222 101.089,213.010 100.877 C 212.810 100.677,211.200 104.200,211.200 104.839 C 211.200 105.043,211.041 105.523,210.847 105.905 C 210.652 106.287,210.253 107.112,209.959 107.737 C 209.652 108.390,209.365 108.646,209.283 108.337 C 209.140 107.795,209.024 107.500,207.814 104.600 C 207.446 103.720,207.002 102.640,206.826 102.200 C 206.136 100.471,205.491 98.968,205.153 98.305 C 204.959 97.923,204.800 97.336,204.800 97.000 C 204.800 96.664,204.627 96.077,204.416 95.695 C 203.580 94.185,202.000 90.497,202.000 90.056 C 202.000 89.799,201.841 89.277,201.647 88.895 C 201.452 88.513,201.111 87.750,200.887 87.200 C 200.664 86.650,200.220 85.570,199.901 84.800 C 199.581 84.030,199.084 82.770,198.796 82.000 C 197.341 78.111,194.946 76.871,193.194 79.099 M217.855 79.055 C 216.816 80.093,216.800 80.193,216.800 85.693 C 216.800 89.657,216.640 91.585,216.249 92.338 C 215.946 92.922,215.475 93.940,215.202 94.600 C 214.930 95.260,214.548 96.113,214.353 96.495 C 214.159 96.877,214.000 97.537,214.000 97.961 C 214.000 98.386,213.799 98.800,213.554 98.882 C 213.309 98.964,213.178 99.384,213.263 99.815 C 213.868 102.888,216.938 92.073,217.167 86.067 C 217.415 79.548,217.673 78.800,219.676 78.800 C 221.574 78.800,222.000 80.054,222.000 85.640 C 222.000 89.233,222.174 91.275,222.554 92.140 C 222.859 92.833,223.524 94.468,224.030 95.772 C 224.537 97.077,225.028 97.915,225.122 97.633 C 225.216 97.351,225.110 96.734,224.887 96.261 C 224.664 95.787,224.184 94.680,223.821 93.800 C 223.458 92.920,222.990 91.887,222.781 91.505 C 222.571 91.123,222.400 88.301,222.400 85.233 L 222.400 79.654 221.238 78.827 C 219.717 77.744,219.126 77.783,217.855 79.055 M242.583 78.709 C 241.819 79.355,241.484 79.963,240.214 83.000 C 239.938 83.660,239.486 84.740,239.209 85.400 C 238.933 86.060,238.548 86.913,238.353 87.295 C 238.159 87.677,238.000 88.337,238.000 88.761 C 238.000 89.186,237.799 89.600,237.554 89.682 C 237.309 89.764,237.180 90.184,237.268 90.615 C 237.364 91.089,238.371 89.039,239.805 85.450 C 242.324 79.147,242.893 78.435,244.985 78.960 C 247.211 79.519,247.062 81.643,244.367 87.800 C 243.982 88.680,242.026 93.540,240.021 98.600 C 238.016 103.660,236.220 108.160,236.029 108.600 C 235.839 109.040,234.884 111.380,233.907 113.800 C 230.985 121.037,229.183 121.037,226.343 113.799 C 225.481 111.599,224.577 109.350,224.334 108.800 C 224.091 108.250,223.752 107.440,223.580 107.000 C 222.016 103.005,220.228 98.569,220.126 98.433 C 219.858 98.079,219.440 98.997,215.742 108.055 C 212.009 117.201,210.904 119.214,209.630 119.187 C 208.858 119.170,207.200 117.836,207.200 117.230 C 207.200 116.988,207.025 116.477,206.811 116.095 C 206.597 115.713,204.402 110.376,201.933 104.234 C 199.464 98.093,197.369 93.294,197.277 93.569 C 197.185 93.845,197.310 94.270,197.555 94.515 C 197.800 94.760,198.000 95.338,198.000 95.800 C 198.000 96.262,198.149 96.811,198.332 97.020 C 198.514 97.229,199.344 99.110,200.175 101.200 C 201.007 103.290,201.872 105.450,202.097 106.000 C 202.323 106.550,202.645 107.360,202.813 107.800 C 202.981 108.240,203.419 109.320,203.786 110.200 C 204.833 112.708,205.173 113.533,205.559 114.500 C 207.263 118.768,207.924 119.600,209.612 119.600 C 210.799 119.600,212.800 117.904,212.800 116.899 C 212.800 116.618,212.980 116.032,213.200 115.595 C 213.420 115.158,213.780 114.442,214.000 114.005 C 214.220 113.568,214.400 113.033,214.400 112.816 C 214.400 112.449,216.011 108.668,216.834 107.105 C 217.035 106.723,217.200 106.048,217.200 105.605 C 217.200 105.162,217.380 104.800,217.600 104.800 C 217.820 104.800,218.002 104.485,218.004 104.100 C 218.006 103.715,218.434 102.518,218.956 101.440 L 219.906 99.480 220.594 101.040 C 220.972 101.898,221.443 103.005,221.641 103.500 C 221.838 103.995,222.163 104.805,222.363 105.300 C 222.562 105.795,223.008 106.957,223.353 107.883 C 223.698 108.809,224.362 110.429,224.830 111.483 C 226.054 114.244,226.287 114.821,226.871 116.548 C 228.058 120.053,233.200 120.555,233.200 117.166 C 233.200 116.739,233.369 116.077,233.575 115.695 C 234.140 114.650,235.806 110.787,236.377 109.200 C 236.933 107.656,237.235 106.883,238.099 104.800 C 238.419 104.030,238.916 102.770,239.204 102.000 C 239.492 101.230,239.879 100.429,240.064 100.220 C 240.249 100.011,240.400 99.426,240.400 98.920 C 240.400 98.414,240.580 98.000,240.800 98.000 C 241.020 98.000,241.200 97.550,241.200 97.000 C 241.200 96.450,241.380 96.000,241.600 96.000 C 241.820 96.000,241.999 95.775,241.999 95.500 C 241.998 95.225,242.469 93.830,243.046 92.400 C 243.622 90.970,244.228 89.440,244.393 89.000 C 244.832 87.830,245.412 86.444,246.360 84.304 C 248.202 80.146,245.542 76.205,242.583 78.709 M264.400 78.400 C 264.070 78.613,263.474 78.791,263.075 78.794 C 262.135 78.802,258.255 80.703,257.229 81.659 C 256.791 82.067,256.302 82.400,256.141 82.400 C 255.429 82.400,251.482 87.204,250.554 89.200 C 249.991 90.410,249.366 91.713,249.165 92.095 C 248.964 92.477,248.813 93.197,248.828 93.695 C 248.848 94.347,249.016 94.152,249.428 93.000 C 253.601 81.329,266.128 75.284,276.700 79.840 C 280.316 81.398,281.199 81.980,283.600 84.390 C 287.046 87.849,289.005 91.684,289.736 96.400 C 289.824 96.968,289.915 96.663,289.946 95.695 C 289.975 94.757,289.842 93.677,289.649 93.295 C 289.456 92.913,289.074 91.880,288.799 91.000 C 287.553 87.009,280.278 79.600,277.604 79.600 C 277.376 79.600,276.877 79.442,276.495 79.249 C 274.079 78.029,265.867 77.452,264.400 78.400 M121.400 83.554 C 113.185 85.069,107.135 93.772,108.757 101.740 C 111.318 114.320,126.100 119.160,135.322 110.439 C 146.617 99.756,136.760 80.721,121.400 83.554 M166.000 83.445 C 164.997 83.634,164.168 83.959,161.640 85.156 C 160.892 85.510,159.362 86.635,158.240 87.656 L 156.200 89.512 156.075 97.856 C 155.908 109.030,155.969 109.231,160.400 112.255 C 169.649 118.565,183.774 112.387,184.664 101.643 C 184.810 99.884,184.783 99.919,184.076 102.424 C 183.352 104.988,182.100 107.667,181.500 107.933 C 181.335 108.007,181.200 108.256,181.200 108.487 C 181.200 109.469,175.418 113.600,174.043 113.600 C 173.605 113.600,173.136 113.780,173.000 114.000 C 172.864 114.220,171.154 114.400,169.200 114.400 C 167.246 114.400,165.536 114.220,165.400 114.000 C 165.264 113.780,164.826 113.600,164.427 113.600 C 163.305 113.600,160.160 111.696,158.393 109.947 L 156.800 108.369 156.800 99.031 L 156.800 89.692 158.466 88.075 C 159.999 86.587,161.612 85.621,164.519 84.451 C 165.974 83.865,172.440 83.868,173.881 84.456 C 177.095 85.767,177.876 86.256,179.775 88.145 C 182.014 90.373,183.249 92.563,184.202 96.000 L 184.812 98.200 184.661 96.352 C 184.013 88.416,174.514 81.846,166.000 83.445 M266.600 83.356 C 266.380 83.437,265.390 83.741,264.400 84.031 C 259.482 85.475,254.864 90.432,254.110 95.075 L 253.895 96.400 269.148 96.400 C 281.058 96.400,284.410 96.290,284.447 95.900 C 285.056 89.484,272.990 81.003,266.600 83.356 M310.800 83.552 C 308.221 84.126,305.547 85.635,303.364 87.749 L 301.200 89.845 301.208 99.023 L 301.215 108.200 302.508 109.638 C 304.601 111.968,309.625 114.908,310.322 114.211 C 310.428 114.105,310.174 113.906,309.757 113.768 C 307.675 113.077,305.339 111.609,303.567 109.878 L 301.600 107.956 301.600 99.149 L 301.600 90.342 303.413 88.427 C 305.067 86.680,306.631 85.694,309.719 84.451 C 311.166 83.868,317.632 83.867,319.081 84.450 C 322.393 85.781,323.026 86.206,325.495 88.752 C 328.344 91.690,329.223 93.888,329.597 99.000 L 329.860 102.600 329.930 99.314 C 330.150 88.999,320.830 81.320,310.800 83.552 M128.772 84.455 C 130.500 85.006,132.001 85.661,132.773 86.200 C 134.111 87.134,137.600 90.919,137.600 91.436 C 137.600 91.746,137.780 92.000,138.000 92.000 C 138.220 92.000,138.400 92.324,138.400 92.720 C 138.400 93.116,138.614 93.654,138.875 93.915 C 139.545 94.585,139.562 103.398,138.894 104.066 C 138.622 104.338,138.400 104.807,138.400 105.108 C 138.400 105.665,136.691 108.312,135.342 109.843 C 134.250 111.083,130.164 113.600,129.243 113.600 C 128.805 113.600,128.336 113.780,128.200 114.000 C 128.064 114.220,126.354 114.400,124.400 114.400 C 122.446 114.400,120.736 114.220,120.600 114.000 C 120.464 113.780,119.995 113.600,119.557 113.600 C 116.254 113.600,110.274 107.017,109.384 102.400 C 108.870 99.734,109.280 93.600,109.972 93.600 C 110.119 93.600,110.455 93.003,110.719 92.274 C 111.732 89.471,115.537 86.268,120.000 84.459 C 121.375 83.902,127.029 83.900,128.772 84.455 M273.881 84.451 C 279.575 86.743,284.000 91.588,284.000 95.528 C 284.000 96.272,254.852 96.200,254.566 95.456 C 254.015 94.019,259.192 86.400,260.720 86.400 C 260.984 86.400,261.200 86.241,261.200 86.047 C 261.200 85.852,261.515 85.586,261.900 85.456 C 262.285 85.325,263.230 84.965,264.000 84.657 C 265.724 83.966,272.335 83.828,273.881 84.451 M236.070 93.256 C 235.644 94.215,235.075 95.630,234.807 96.400 C 234.137 98.324,233.843 99.045,232.641 101.711 C 232.069 102.982,231.600 104.199,231.600 104.416 C 231.600 104.633,231.441 105.123,231.247 105.505 C 230.817 106.350,230.130 107.984,229.861 108.800 C 229.736 109.179,229.652 109.077,229.632 108.524 C 229.614 108.042,229.420 107.536,229.200 107.400 C 228.980 107.264,228.800 106.837,228.800 106.452 C 228.800 106.066,228.452 105.029,228.026 104.148 C 227.600 103.267,227.130 102.062,226.982 101.469 C 226.833 100.877,226.551 100.294,226.356 100.173 C 226.160 100.052,226.000 99.603,226.000 99.176 C 226.000 98.749,225.801 98.400,225.557 98.400 C 225.314 98.400,225.203 98.625,225.312 98.900 C 230.299 111.512,229.633 110.815,231.709 105.600 C 231.928 105.050,232.261 104.240,232.450 103.800 C 233.938 100.332,237.144 91.811,237.011 91.678 C 236.920 91.587,236.497 92.297,236.070 93.256 M248.252 95.700 C 247.611 98.094,248.584 106.749,249.403 105.931 C 249.504 105.830,249.401 105.129,249.175 104.374 C 248.950 103.618,248.758 101.155,248.749 98.900 C 248.733 94.650,248.660 94.179,248.252 95.700 M145.293 99.200 C 145.293 99.970,145.375 100.285,145.476 99.900 C 145.576 99.515,145.576 98.885,145.476 98.500 C 145.375 98.115,145.293 98.430,145.293 99.200 M289.400 100.077 L 289.000 101.000 271.533 101.200 C 261.926 101.310,253.939 101.527,253.783 101.683 C 253.628 101.839,253.928 103.181,254.450 104.666 C 257.852 114.335,270.313 117.982,278.648 111.748 C 281.487 109.624,282.212 109.364,283.448 110.026 C 287.431 112.157,280.101 118.270,271.972 119.595 C 264.084 120.881,254.967 116.220,251.066 108.905 C 250.085 107.066,249.619 106.488,249.612 107.100 C 249.605 107.595,249.780 108.000,250.000 108.000 C 250.220 108.000,250.400 108.360,250.400 108.800 C 250.400 109.240,250.580 109.600,250.800 109.600 C 251.020 109.600,251.200 109.861,251.200 110.180 C 251.200 110.956,256.684 116.462,258.200 117.208 C 258.860 117.533,259.490 117.899,259.600 118.022 C 261.688 120.355,275.675 120.944,277.027 118.756 C 277.148 118.560,277.503 118.400,277.816 118.400 C 278.469 118.400,282.074 116.122,283.700 114.681 C 285.044 113.491,285.275 110.649,284.100 109.757 C 283.280 109.135,280.800 109.017,280.800 109.600 C 280.800 109.820,280.612 110.000,280.383 110.000 C 280.154 110.000,279.569 110.376,279.083 110.835 C 278.077 111.786,275.659 113.128,273.600 113.878 C 271.941 114.482,265.755 114.574,265.400 114.000 C 265.264 113.780,264.795 113.600,264.357 113.600 C 262.982 113.600,257.200 109.469,257.200 108.487 C 257.200 108.256,257.065 108.007,256.900 107.933 C 256.293 107.664,254.400 103.659,254.400 102.646 L 254.400 101.600 271.629 101.600 C 289.850 101.600,290.299 101.555,289.929 99.776 C 289.835 99.320,289.693 99.401,289.400 100.077 M329.014 103.400 C 327.369 108.120,322.136 113.600,319.274 113.600 C 318.881 113.600,318.388 113.772,318.177 113.983 C 317.966 114.194,316.265 114.434,314.397 114.516 L 311.000 114.667 314.800 114.631 C 319.371 114.587,321.992 113.562,325.198 110.564 C 327.217 108.674,329.847 104.076,329.475 103.084 C 329.367 102.796,329.180 102.924,329.014 103.400 M178.700 133.491 L 181.200 133.637 181.200 142.185 C 181.200 147.624,181.051 150.807,180.790 150.937 C 180.565 151.049,180.610 151.094,180.890 151.037 C 181.285 150.957,181.400 148.951,181.400 142.167 L 181.400 133.400 178.800 133.373 L 176.200 133.345 178.700 133.491 M130.400 142.600 C 130.400 147.330,130.535 151.200,130.700 151.200 C 130.865 151.201,130.948 147.421,130.885 142.800 L 130.769 134.400 135.761 134.400 C 138.657 134.400,140.857 134.568,141.000 134.800 C 141.136 135.020,141.563 135.200,141.949 135.200 C 143.902 135.200,145.739 138.616,145.713 142.198 C 145.683 146.173,143.524 150.000,141.311 150.000 C 141.084 150.000,140.651 150.299,140.349 150.664 C 139.858 151.258,139.885 151.284,140.600 150.911 C 141.040 150.681,141.914 150.252,142.543 149.956 C 145.175 148.719,146.732 144.536,146.148 140.273 C 145.857 138.151,143.311 134.800,141.990 134.800 C 141.581 134.800,141.136 134.620,141.000 134.400 C 140.856 134.167,138.596 134.000,135.576 134.000 L 130.400 134.000 130.400 142.600 M268.592 135.158 C 268.376 135.367,267.660 135.615,267.000 135.709 L 265.800 135.880 267.076 135.940 C 267.778 135.973,268.464 135.820,268.600 135.600 C 269.213 134.608,269.959 135.263,270.077 136.900 C 270.192 138.496,270.280 138.608,271.500 138.725 C 272.721 138.843,272.800 138.944,272.800 140.400 C 272.800 141.856,272.721 141.957,271.500 142.075 C 269.335 142.283,269.347 147.425,271.513 147.675 C 272.818 147.825,273.408 150.560,272.214 150.926 C 271.735 151.073,271.753 151.104,272.292 151.056 C 273.651 150.935,273.503 147.690,272.122 147.352 C 269.813 146.786,269.457 142.542,271.700 142.325 C 273.708 142.132,273.728 138.670,271.722 138.476 C 270.531 138.361,270.435 138.239,270.322 136.680 C 270.199 134.999,269.441 134.332,268.592 135.158 M264.854 137.072 C 264.812 138.067,264.603 138.372,263.900 138.472 C 263.119 138.583,263.000 138.838,263.000 140.400 C 263.000 141.962,263.119 142.217,263.900 142.328 C 264.735 142.446,264.800 142.657,264.800 145.254 C 264.800 148.679,266.070 151.188,267.800 151.180 C 268.020 151.179,267.578 150.663,266.817 150.032 C 265.487 148.929,265.426 148.759,265.217 145.543 C 265.017 142.458,264.931 142.190,264.100 142.072 C 262.819 141.890,262.737 138.800,264.013 138.800 C 264.952 138.800,265.339 138.054,265.086 136.729 C 264.948 136.006,264.897 136.082,264.854 137.072 M135.686 137.938 C 135.306 138.180,135.202 139.447,135.286 142.832 L 135.400 147.400 136.847 147.521 C 138.296 147.642,140.400 145.958,140.400 144.676 C 140.400 144.422,139.944 144.886,139.386 145.707 C 138.597 146.867,138.107 147.200,137.186 147.200 L 136.000 147.200 136.000 142.575 L 136.000 137.949 137.287 138.075 C 138.230 138.166,138.819 138.564,139.487 139.559 C 139.989 140.307,140.400 140.725,140.400 140.490 C 140.400 138.738,137.176 136.993,135.686 137.938 M149.900 139.429 C 149.075 139.970,148.400 140.509,148.400 140.628 C 148.400 140.917,150.963 139.484,151.133 139.100 C 151.207 138.935,152.227 138.800,153.401 138.800 C 157.207 138.800,159.200 140.706,159.200 144.345 L 159.200 146.366 156.132 146.483 C 152.093 146.637,151.444 147.600,155.379 147.600 C 158.449 147.600,158.983 148.158,157.833 150.161 L 157.129 151.388 157.965 150.632 C 159.944 148.841,158.774 147.229,155.420 147.125 C 153.227 147.058,153.319 147.030,156.400 146.825 C 159.800 146.600,159.800 146.600,159.933 145.432 C 160.559 139.944,154.578 136.366,149.900 139.429 M160.979 138.910 C 160.872 139.190,160.832 143.285,160.892 148.010 L 161.000 156.600 163.600 156.600 L 166.200 156.600 166.317 153.500 C 166.406 151.147,167.200 148.718,167.200 150.800 C 167.200 151.020,167.510 151.200,167.889 151.200 C 168.455 151.200,168.419 151.089,167.688 150.577 C 166.329 149.625,166.000 150.181,166.000 153.424 L 166.000 156.400 163.600 156.400 L 161.200 156.400 161.200 147.600 L 161.200 138.800 163.405 138.800 C 164.618 138.800,165.964 139.020,166.395 139.290 C 167.015 139.677,167.283 139.677,167.670 139.290 C 168.540 138.420,171.367 138.692,172.514 139.756 C 175.267 142.307,174.701 148.304,171.515 150.345 C 170.620 150.918,170.423 151.189,170.900 151.193 C 171.285 151.197,171.600 151.020,171.600 150.800 C 171.600 150.580,171.825 150.398,172.100 150.395 C 173.583 150.380,175.039 145.833,174.546 142.755 C 174.015 139.434,169.261 136.899,167.280 138.880 C 166.907 139.253,166.693 139.253,166.320 138.880 C 165.661 138.221,161.234 138.246,160.979 138.910 M186.085 138.984 C 184.854 139.663,183.200 141.245,183.200 141.742 C 183.200 141.963,183.711 141.572,184.336 140.872 C 184.960 140.172,185.770 139.600,186.136 139.600 C 186.501 139.600,186.800 139.420,186.800 139.200 C 186.800 138.548,191.732 138.728,193.142 139.431 C 197.585 141.648,197.533 148.294,193.055 150.394 C 192.145 150.821,191.597 151.177,191.839 151.185 C 195.574 151.310,198.236 145.018,195.987 141.379 C 194.320 138.682,188.974 137.389,186.085 138.984 M197.061 138.700 C 196.958 138.865,198.159 139.000,199.730 139.000 L 202.585 139.000 203.226 141.800 C 203.674 143.761,204.066 144.639,204.533 144.729 C 205.356 144.889,205.422 144.060,204.611 143.749 C 204.287 143.624,203.913 142.865,203.781 142.061 C 203.210 138.602,202.999 138.400,199.975 138.400 C 198.475 138.400,197.163 138.535,197.061 138.700 M206.158 139.100 C 206.039 139.485,205.775 140.113,205.571 140.495 C 205.367 140.877,205.215 141.777,205.233 142.495 C 205.260 143.520,205.402 143.265,205.896 141.300 L 206.524 138.800 208.839 138.800 L 211.153 138.800 209.767 142.700 C 209.004 144.845,208.101 147.382,207.761 148.338 C 207.421 149.294,207.225 150.159,207.326 150.260 C 207.427 150.361,207.787 149.669,208.125 148.722 C 211.007 140.655,211.536 139.020,211.357 138.731 C 210.924 138.030,206.390 138.352,206.158 139.100 M212.576 138.918 C 212.056 140.273,212.603 150.935,213.200 151.098 C 213.656 151.222,213.677 151.174,213.289 150.900 C 212.905 150.629,212.805 149.102,212.889 144.769 L 213.000 139.000 215.140 138.878 C 216.812 138.782,217.391 138.908,217.791 139.456 C 218.274 140.116,218.362 140.117,219.337 139.478 C 220.639 138.625,223.718 138.578,224.400 139.400 C 225.023 140.151,225.502 140.151,226.946 139.398 C 229.319 138.160,232.038 138.894,233.153 141.074 C 233.793 142.326,233.748 150.673,233.100 150.935 C 232.801 151.056,232.882 151.150,233.300 151.168 C 234.747 151.234,234.302 141.749,232.771 139.891 C 231.358 138.177,228.506 137.788,226.586 139.046 C 225.678 139.641,225.522 139.641,224.614 139.046 C 223.278 138.170,220.088 138.197,219.099 139.092 C 218.374 139.747,218.314 139.747,217.947 139.092 C 217.461 138.222,212.900 138.075,212.576 138.918 M237.900 139.429 C 237.075 139.970,236.400 140.509,236.400 140.628 C 236.400 140.917,238.963 139.484,239.133 139.100 C 239.207 138.935,240.227 138.800,241.401 138.800 C 245.207 138.800,247.200 140.706,247.200 144.345 L 247.200 146.366 244.132 146.483 C 240.093 146.637,239.444 147.600,243.379 147.600 C 246.449 147.600,246.983 148.158,245.833 150.161 L 245.129 151.388 245.965 150.632 C 247.944 148.841,246.774 147.229,243.420 147.125 C 241.227 147.058,241.319 147.030,244.400 146.825 C 247.800 146.600,247.800 146.600,247.933 145.432 C 248.559 139.944,242.578 136.366,237.900 139.429 M249.067 138.667 C 248.371 139.363,248.781 151.201,249.500 151.168 C 249.918 151.150,249.999 151.056,249.700 150.935 C 249.331 150.786,249.200 149.166,249.200 144.767 L 249.200 138.800 251.580 138.800 C 253.363 138.800,254.052 138.963,254.325 139.451 C 254.622 139.983,254.826 140.014,255.444 139.621 C 256.017 139.256,256.038 139.189,255.529 139.346 C 255.160 139.460,254.643 139.293,254.380 138.976 C 253.889 138.384,249.599 138.134,249.067 138.667 M257.987 138.765 C 261.351 139.126,262.000 140.333,262.000 146.226 C 262.000 149.458,261.858 150.790,261.500 150.935 C 261.201 151.056,261.282 151.150,261.700 151.168 C 262.330 151.197,262.400 150.717,262.400 146.395 C 262.400 139.925,261.504 138.382,257.800 138.479 L 255.800 138.530 257.987 138.765 M197.200 139.729 C 197.200 139.884,197.365 140.323,197.566 140.705 C 197.768 141.087,198.187 142.030,198.499 142.800 C 199.591 145.501,199.946 146.195,199.973 145.681 C 199.988 145.395,199.640 144.416,199.200 143.506 C 198.760 142.595,198.394 141.659,198.387 141.425 C 198.373 140.955,197.200 139.279,197.200 139.729 M147.376 142.597 C 146.499 144.694,146.910 147.443,148.333 149.008 C 149.506 150.299,151.158 151.376,151.476 151.057 C 151.585 150.948,151.163 150.593,150.537 150.268 C 147.777 148.832,146.346 144.193,148.036 142.156 C 148.299 141.840,148.401 141.467,148.262 141.329 C 148.124 141.190,147.725 141.761,147.376 142.597 M152.613 141.985 C 151.648 143.052,152.095 144.000,153.564 144.000 C 155.012 144.000,155.330 143.569,154.792 142.337 C 154.396 141.429,154.388 141.434,154.536 142.500 C 154.672 143.479,154.564 143.600,153.545 143.600 C 152.199 143.600,152.093 143.107,153.200 142.000 C 153.640 141.560,153.848 141.200,153.662 141.200 C 153.476 141.200,153.004 141.553,152.613 141.985 M235.670 141.869 C 235.263 142.629,235.002 145.042,235.136 146.800 C 235.250 148.294,238.779 151.755,239.476 151.057 C 239.585 150.948,239.163 150.593,238.537 150.268 C 235.777 148.832,234.346 144.193,236.036 142.156 C 236.299 141.840,236.413 141.480,236.289 141.356 C 236.166 141.233,235.887 141.463,235.670 141.869 M240.613 141.985 C 239.648 143.052,240.095 144.000,241.564 144.000 C 243.012 144.000,243.330 143.569,242.792 142.337 C 242.396 141.429,242.388 141.434,242.536 142.500 C 242.672 143.479,242.564 143.600,241.545 143.600 C 240.188 143.600,240.114 143.257,241.216 142.075 C 241.664 141.594,241.872 141.200,241.678 141.200 C 241.483 141.200,241.004 141.553,240.613 141.985 M166.629 142.629 C 165.914 143.343,165.795 145.670,166.414 146.826 C 167.068 148.047,168.732 147.839,169.026 146.500 C 169.158 145.895,169.336 145.175,169.421 144.900 C 169.505 144.626,169.412 143.996,169.213 143.500 C 168.926 142.788,168.845 143.040,168.825 144.713 C 168.807 146.212,168.624 146.892,168.195 147.057 C 166.256 147.801,165.690 143.477,167.600 142.515 C 168.284 142.171,168.388 142.010,167.929 142.006 C 167.559 142.003,166.974 142.283,166.629 142.629 M188.246 142.986 C 186.935 144.986,187.950 147.756,189.908 147.523 C 190.475 147.455,190.984 147.171,191.039 146.890 C 191.095 146.609,191.049 146.565,190.937 146.790 C 189.960 148.759,188.088 146.388,188.574 143.797 C 189.035 141.339,190.675 141.950,191.231 144.786 L 191.508 146.200 191.554 144.729 C 191.634 142.180,189.508 141.060,188.246 142.986 M218.349 142.659 C 217.759 143.368,217.164 151.202,217.700 151.201 C 217.865 151.200,218.000 149.524,218.000 147.475 C 218.000 144.280,218.116 143.626,218.816 142.875 C 219.264 142.394,219.466 142.000,219.265 142.000 C 219.063 142.000,218.651 142.297,218.349 142.659 M226.400 142.390 C 225.761 142.793,225.093 151.202,225.700 151.201 C 225.865 151.200,226.000 149.410,226.000 147.223 C 226.000 143.566,226.072 143.195,226.889 142.623 C 227.838 141.958,227.409 141.755,226.400 142.390 M254.800 142.390 C 254.161 142.793,253.493 151.202,254.100 151.201 C 254.265 151.200,254.400 149.410,254.400 147.223 C 254.400 143.566,254.472 143.195,255.289 142.623 C 256.238 141.958,255.809 141.755,254.800 142.390 M182.636 143.400 C 182.498 143.950,182.467 144.805,182.567 145.300 C 182.668 145.795,182.846 146.650,182.965 147.200 C 183.229 148.433,184.890 150.400,185.667 150.400 C 185.982 150.400,186.453 150.613,186.713 150.873 C 186.974 151.134,187.279 151.255,187.391 151.142 C 187.503 151.030,186.940 150.592,186.139 150.169 C 183.866 148.968,183.162 147.733,183.122 144.876 C 183.083 142.146,183.008 141.917,182.636 143.400 M220.162 142.933 C 220.293 143.336,220.400 145.361,220.400 147.433 C 220.400 150.766,220.481 151.196,221.100 151.168 C 221.518 151.150,221.599 151.056,221.300 150.935 C 220.952 150.795,220.798 149.621,220.794 147.067 C 220.791 145.050,220.594 143.130,220.356 142.800 C 219.997 142.301,219.965 142.323,220.162 142.933 M256.562 142.933 C 256.693 143.336,256.800 145.361,256.800 147.433 C 256.800 150.766,256.881 151.196,257.500 151.168 C 257.918 151.150,257.999 151.056,257.700 150.935 C 257.352 150.795,257.198 149.621,257.194 147.067 C 257.191 145.050,256.994 143.130,256.756 142.800 C 256.397 142.301,256.365 142.323,256.562 142.933 M228.482 147.300 C 228.409 150.781,228.475 151.199,229.100 151.194 C 229.579 151.190,229.648 151.091,229.317 150.881 C 229.016 150.690,228.783 149.218,228.699 146.987 L 228.565 143.400 228.482 147.300 M200.822 148.200 C 200.816 148.420,201.071 149.320,201.388 150.200 C 201.705 151.080,201.973 151.506,201.982 151.146 C 201.992 150.786,201.737 149.886,201.416 149.146 C 201.094 148.406,200.827 147.980,200.822 148.200 M206.410 152.031 C 205.311 154.797,203.007 156.453,200.447 156.318 L 198.200 156.200 198.074 154.669 C 197.968 153.384,198.086 153.103,198.808 152.914 C 199.701 152.680,199.185 152.019,198.100 152.006 C 197.442 151.998,197.425 155.665,198.080 156.320 C 200.287 158.527,208.084 154.052,207.112 151.136 C 207.025 150.876,206.709 151.278,206.410 152.031 " stroke="none" fill="#383838" fill-rule="evenodd"></path><path id="path2" d="M152.182 64.982 L 151.200 65.964 151.200 90.796 C 151.200 112.981,151.269 115.733,151.846 116.614 C 152.728 117.960,154.462 117.929,155.745 116.545 L 156.723 115.491 157.944 116.360 C 165.863 121.999,177.659 120.409,184.564 112.772 C 187.094 109.973,190.507 102.745,188.800 103.800 C 188.580 103.936,188.400 104.334,188.400 104.684 C 188.400 105.454,186.432 109.589,185.713 110.329 C 185.431 110.619,185.196 110.979,185.191 111.129 C 185.155 112.184,178.971 117.200,177.705 117.200 C 177.427 117.200,177.200 117.380,177.200 117.600 C 177.200 117.820,176.696 118.000,176.080 118.000 C 175.464 118.000,174.771 118.189,174.541 118.419 C 173.978 118.982,164.027 118.987,163.464 118.424 C 163.231 118.191,162.712 118.000,162.312 118.000 C 161.912 118.000,160.871 117.550,160.000 117.000 C 159.129 116.450,158.232 116.000,158.008 116.000 C 157.784 116.000,157.600 115.820,157.600 115.600 C 157.600 114.803,155.533 115.169,155.315 116.004 C 155.199 116.447,154.648 116.923,154.090 117.063 C 151.972 117.595,152.000 117.943,152.000 91.000 C 152.000 63.979,151.965 64.403,154.130 64.947 L 155.184 65.211 155.292 73.906 L 155.400 82.600 156.355 82.735 C 156.880 82.809,157.420 82.717,157.555 82.530 C 157.898 82.054,161.016 80.574,163.400 79.756 C 170.950 77.165,183.254 81.652,186.075 88.025 C 186.361 88.671,186.731 89.200,186.898 89.200 C 187.064 89.200,187.200 89.449,187.200 89.754 C 187.200 90.059,187.469 90.824,187.798 91.454 C 188.126 92.084,188.396 92.904,188.398 93.276 C 188.399 93.648,188.580 94.064,188.800 94.200 C 189.560 94.669,189.195 93.193,187.813 90.201 C 182.643 79.009,167.877 74.832,157.859 81.728 C 156.143 82.909,156.013 82.333,156.006 73.500 C 155.999 64.007,155.118 62.045,152.182 64.982 M297.362 64.842 C 296.356 65.954,296.152 115.737,297.149 116.939 C 297.951 117.905,299.712 117.758,300.766 116.636 L 301.672 115.671 304.736 117.264 C 310.052 120.026,316.412 120.529,321.000 118.549 C 322.183 118.039,322.185 118.031,321.180 118.016 C 320.619 118.007,319.970 118.190,319.738 118.422 C 319.162 118.998,309.250 119.010,308.675 118.435 C 308.436 118.196,307.925 118.000,307.540 118.000 C 307.155 118.000,305.796 117.370,304.520 116.601 C 301.765 114.940,300.938 114.860,300.327 116.200 C 299.836 117.278,298.501 117.541,297.680 116.720 C 296.708 115.748,297.020 65.311,298.000 65.000 C 300.554 64.189,300.788 65.000,300.795 74.713 C 300.801 83.595,300.763 83.515,304.077 81.712 C 310.218 78.369,316.650 78.107,323.300 80.929 C 323.905 81.185,324.400 81.531,324.400 81.698 C 324.400 81.864,324.676 82.000,325.014 82.000 C 325.946 82.000,330.892 87.172,331.800 89.095 C 332.240 90.028,332.735 90.793,332.900 90.795 C 333.827 90.810,331.573 87.244,329.000 84.623 C 322.308 77.809,311.091 76.395,303.512 81.411 C 301.237 82.917,301.200 82.793,301.200 73.599 C 301.200 65.420,301.181 65.232,300.311 64.623 C 299.105 63.778,298.269 63.840,297.362 64.842 M80.760 78.979 C 60.882 84.461,59.803 112.012,79.200 118.788 C 85.577 121.016,94.445 119.446,98.524 115.367 C 101.651 112.240,98.282 109.852,94.302 112.376 C 91.506 114.150,89.157 114.799,85.486 114.812 C 82.938 114.822,82.367 114.921,82.943 115.256 C 84.029 115.887,91.600 115.100,91.600 114.356 C 91.600 114.160,91.867 114.000,92.194 114.000 C 92.521 114.000,93.666 113.460,94.738 112.800 C 96.826 111.515,97.952 111.312,98.720 112.080 C 99.940 113.300,98.724 115.106,95.624 116.678 C 94.841 117.075,94.140 117.535,94.067 117.700 C 93.993 117.865,93.509 118.000,92.990 118.000 C 92.472 118.000,91.936 118.180,91.800 118.400 C 91.664 118.620,91.026 118.800,90.382 118.800 C 89.738 118.800,88.416 119.013,87.443 119.273 C 85.125 119.893,79.319 118.741,76.600 117.122 C 75.940 116.728,75.134 116.280,74.810 116.126 C 74.033 115.756,72.129 114.089,70.835 112.644 C 70.266 112.009,69.609 111.289,69.376 111.044 C 69.142 110.800,68.448 109.520,67.834 108.200 C 67.219 106.880,66.518 105.383,66.277 104.874 C 65.692 103.643,65.705 94.720,66.293 93.526 C 66.543 93.017,67.109 91.790,67.550 90.800 C 69.087 87.351,73.669 82.000,75.086 82.000 C 75.369 82.000,75.600 81.820,75.600 81.600 C 75.600 81.380,75.924 81.200,76.320 81.200 C 76.716 81.200,77.211 81.048,77.420 80.863 C 81.085 77.610,93.289 78.994,97.996 83.197 C 100.883 85.774,98.383 87.897,95.072 85.681 C 88.978 81.601,82.623 81.626,76.400 85.755 C 73.625 87.597,72.408 89.111,70.343 93.295 C 70.154 93.677,70.000 94.431,70.000 94.971 C 70.000 95.511,69.820 96.064,69.600 96.200 C 69.380 96.336,69.200 97.596,69.200 99.000 C 69.200 100.404,69.380 101.664,69.600 101.800 C 69.820 101.936,70.000 102.543,70.000 103.149 C 70.000 105.734,75.480 113.200,77.378 113.200 C 77.720 113.200,78.000 113.380,78.000 113.600 C 78.000 113.820,78.349 114.000,78.776 114.000 C 79.203 114.000,79.664 114.180,79.800 114.400 C 79.936 114.620,80.532 114.796,81.124 114.791 C 81.956 114.783,81.678 114.566,79.892 113.832 C 75.913 112.195,72.928 109.315,71.143 105.387 C 70.078 103.042,69.762 94.878,70.700 93.940 C 70.975 93.665,71.200 93.193,71.200 92.892 C 71.200 92.318,72.988 89.572,74.258 88.196 C 79.203 82.836,87.867 81.835,94.308 85.877 C 96.688 87.371,97.973 87.535,98.938 86.469 C 102.728 82.281,89.119 76.674,80.760 78.979 M121.400 78.643 C 103.534 83.137,97.659 102.265,110.411 114.420 C 127.606 130.809,154.609 108.260,141.810 88.200 C 137.550 81.524,127.904 77.007,121.400 78.643 M264.243 79.009 C 242.694 84.926,243.830 114.958,265.772 119.440 C 272.884 120.893,284.400 116.324,284.400 112.049 C 284.400 109.023,282.429 108.920,278.648 111.748 C 270.302 117.990,257.852 114.335,254.442 104.643 C 253.642 102.370,253.576 101.861,254.042 101.566 C 254.489 101.283,254.460 101.211,253.900 101.206 C 253.365 101.201,253.200 101.531,253.200 102.600 C 253.200 103.370,253.380 104.000,253.600 104.000 C 253.820 104.000,254.000 104.343,254.000 104.762 C 254.000 106.882,258.455 112.158,261.423 113.554 C 265.634 115.534,269.230 116.057,272.600 115.179 C 275.548 114.411,277.908 113.270,279.400 111.891 C 281.489 109.960,283.638 109.992,283.930 111.959 C 284.064 112.862,281.855 115.280,280.200 116.043 C 279.760 116.246,278.860 116.756,278.200 117.177 C 277.540 117.597,276.631 117.955,276.180 117.971 C 275.729 117.987,275.153 118.207,274.899 118.461 C 274.276 119.084,264.113 119.073,263.489 118.449 C 263.242 118.202,262.626 118.000,262.120 118.000 C 261.614 118.000,261.200 117.820,261.200 117.600 C 261.200 117.380,261.011 117.200,260.781 117.200 C 257.869 117.200,250.000 108.273,250.000 104.971 C 250.000 104.463,249.820 103.936,249.600 103.800 C 249.371 103.659,249.200 101.604,249.200 99.000 C 249.200 96.396,249.371 94.341,249.600 94.200 C 249.820 94.064,250.000 93.631,250.000 93.238 C 250.000 92.348,250.980 90.318,252.466 88.128 C 253.090 87.208,253.609 86.308,253.619 86.128 C 253.678 85.138,260.553 80.400,261.931 80.400 C 262.321 80.400,262.828 80.212,263.058 79.982 C 264.107 78.933,274.276 78.916,275.323 79.963 C 275.563 80.203,275.996 80.400,276.284 80.400 C 280.286 80.400,288.781 90.097,288.806 94.695 C 288.809 95.303,288.987 96.070,289.200 96.400 C 289.877 97.447,289.673 95.144,288.874 92.723 C 287.794 89.450,286.154 86.883,283.417 84.185 C 281.150 81.951,280.255 81.372,276.700 79.840 C 273.241 78.349,267.935 77.995,264.243 79.009 M193.438 79.667 C 192.567 80.910,193.048 82.817,195.790 89.000 C 196.082 89.660,198.596 95.870,201.376 102.800 C 204.155 109.730,206.603 115.713,206.815 116.095 C 207.027 116.477,207.200 116.988,207.200 117.230 C 207.200 117.836,208.858 119.170,209.630 119.187 C 210.904 119.214,212.009 117.201,215.742 108.055 C 217.841 102.915,219.657 98.610,219.779 98.488 C 220.087 98.180,220.077 98.160,221.759 102.400 C 222.588 104.490,223.456 106.650,223.687 107.200 C 223.918 107.750,224.257 108.560,224.441 109.000 C 224.625 109.440,225.481 111.599,226.343 113.799 C 229.183 121.037,230.985 121.037,233.907 113.800 C 234.884 111.380,235.839 109.040,236.029 108.600 C 236.220 108.160,238.016 103.660,240.021 98.600 C 242.026 93.540,243.982 88.680,244.367 87.800 C 247.062 81.643,247.211 79.519,244.985 78.960 C 242.736 78.396,242.461 78.840,237.647 90.846 C 235.143 97.091,232.829 102.830,232.506 103.600 C 232.183 104.370,231.782 105.360,231.615 105.800 C 229.765 110.670,230.121 110.974,226.228 101.200 C 224.520 96.910,222.869 92.833,222.561 92.140 C 222.172 91.266,222.000 89.269,222.000 85.640 C 222.000 80.054,221.574 78.800,219.676 78.800 C 217.673 78.800,217.415 79.548,217.169 86.067 L 216.937 92.200 213.451 100.598 C 211.533 105.217,209.828 109.132,209.660 109.300 C 209.391 109.569,209.056 108.927,207.569 105.300 C 207.366 104.805,207.029 103.995,206.820 103.500 C 206.611 103.005,204.797 98.460,202.789 93.400 C 197.656 80.464,196.921 79.031,195.338 78.878 C 194.393 78.786,193.917 78.983,193.438 79.667 M130.090 79.930 C 130.349 80.189,130.879 80.400,131.268 80.400 C 136.662 80.400,144.781 91.695,144.781 99.200 C 144.781 106.503,136.730 118.000,131.616 118.000 C 131.193 118.000,130.750 118.157,130.632 118.348 C 129.918 119.503,118.882 119.503,118.168 118.348 C 118.050 118.157,117.607 118.000,117.184 118.000 C 116.443 118.000,112.347 115.596,111.280 114.535 C 110.994 114.250,110.532 113.879,110.253 113.709 C 109.013 112.955,105.200 106.432,105.200 105.066 C 105.200 104.568,105.008 103.968,104.773 103.733 C 104.309 103.269,104.481 96.037,105.013 93.609 C 105.510 91.340,109.803 84.404,110.713 84.398 C 110.871 84.397,111.540 83.902,112.200 83.298 C 113.609 82.009,116.583 80.400,117.558 80.400 C 117.933 80.400,118.411 80.235,118.620 80.034 C 119.560 79.128,129.201 79.041,130.090 79.930 M196.469 79.862 C 196.871 80.226,197.200 80.856,197.200 81.262 C 197.200 81.668,197.380 82.000,197.600 82.000 C 197.820 82.000,198.000 82.252,198.000 82.560 C 198.000 82.868,198.646 84.713,199.436 86.660 C 200.226 88.607,201.036 90.605,201.236 91.100 C 201.436 91.595,201.804 92.495,202.054 93.100 C 202.303 93.705,202.639 94.560,202.800 95.000 C 202.961 95.440,203.285 96.250,203.519 96.800 C 204.343 98.731,205.285 101.008,205.587 101.800 C 205.755 102.240,206.121 103.140,206.400 103.800 C 206.679 104.460,207.038 105.360,207.199 105.800 C 208.523 109.426,209.267 110.463,210.041 109.763 C 210.458 109.385,210.800 108.906,210.800 108.698 C 210.800 108.491,211.088 107.664,211.441 106.860 C 211.793 106.057,212.264 104.950,212.487 104.400 C 212.711 103.850,213.052 103.087,213.247 102.705 C 213.441 102.323,213.600 101.648,213.600 101.205 C 213.600 100.762,213.780 100.400,214.000 100.400 C 214.220 100.400,214.400 100.135,214.400 99.811 C 214.400 99.289,215.843 95.788,216.834 93.905 C 217.035 93.523,217.200 92.848,217.200 92.405 C 217.200 91.962,217.380 91.600,217.600 91.600 C 217.848 91.600,218.000 89.396,218.000 85.787 C 218.000 80.153,218.027 79.964,218.885 79.647 C 221.013 78.860,221.200 79.269,221.200 84.718 C 221.200 89.622,221.418 90.918,222.795 94.200 C 223.165 95.080,223.968 97.060,224.580 98.600 C 225.192 100.140,225.876 101.850,226.100 102.400 C 226.324 102.950,226.645 103.760,226.813 104.200 C 227.110 104.977,227.710 106.424,228.844 109.100 C 229.147 109.815,229.603 110.400,229.858 110.400 C 230.272 110.400,233.200 104.053,233.200 103.155 C 233.200 102.954,233.365 102.477,233.566 102.095 C 234.389 100.532,236.000 96.751,236.000 96.384 C 236.000 96.167,236.159 95.677,236.353 95.295 C 236.684 94.645,237.021 93.847,238.000 91.400 C 238.428 90.329,238.761 89.522,239.814 87.000 C 240.181 86.120,240.664 84.950,240.887 84.400 C 241.111 83.850,241.452 83.087,241.647 82.705 C 241.841 82.323,242.000 81.715,242.000 81.352 C 242.000 80.677,243.433 79.200,244.088 79.200 C 245.750 79.200,246.623 81.629,245.634 83.505 C 244.811 85.068,243.200 88.849,243.200 89.216 C 243.200 89.433,243.041 89.923,242.847 90.305 C 242.427 91.130,242.017 92.128,239.767 97.800 C 239.156 99.340,238.509 100.771,238.328 100.980 C 238.148 101.189,238.000 101.774,238.000 102.280 C 238.000 102.786,237.820 103.200,237.600 103.200 C 237.380 103.200,237.200 103.526,237.200 103.925 C 237.200 104.324,236.750 105.583,236.200 106.723 C 235.650 107.863,235.200 108.979,235.200 109.203 C 235.200 109.428,235.041 109.923,234.847 110.305 C 234.652 110.687,234.292 111.495,234.047 112.100 C 232.145 116.784,231.597 117.809,230.699 118.370 C 229.850 118.901,228.000 117.647,228.000 116.541 C 228.000 116.256,227.531 114.982,226.959 113.711 C 225.894 111.348,225.328 110.015,224.788 108.600 C 224.462 107.746,223.102 104.380,222.333 102.524 C 222.076 101.906,221.570 100.590,221.207 99.600 C 220.255 97.002,219.477 97.302,218.100 100.800 C 217.585 102.110,217.017 103.486,215.209 107.800 C 214.933 108.460,214.548 109.313,214.353 109.695 C 214.159 110.077,214.000 110.752,214.000 111.195 C 214.000 111.638,213.820 112.000,213.600 112.000 C 213.380 112.000,213.200 112.251,213.200 112.558 C 213.200 113.561,211.032 117.913,210.307 118.365 C 209.287 119.002,208.153 118.168,207.374 116.208 C 206.486 113.975,205.600 111.928,205.166 111.105 C 204.965 110.723,204.800 110.172,204.800 109.881 C 204.800 109.589,204.452 108.629,204.026 107.748 C 203.600 106.867,203.130 105.662,202.982 105.069 C 202.833 104.477,202.551 103.894,202.356 103.773 C 202.160 103.652,202.000 103.203,202.000 102.776 C 202.000 102.349,201.820 102.000,201.600 102.000 C 201.380 102.000,201.200 101.638,201.200 101.195 C 201.200 100.752,201.041 100.077,200.847 99.695 C 200.652 99.313,200.305 98.550,200.074 98.000 C 199.002 95.447,198.289 93.726,197.959 92.900 C 197.046 90.613,196.681 89.750,196.353 89.105 C 196.159 88.723,196.000 88.233,196.000 88.016 C 196.000 87.649,194.389 83.868,193.566 82.305 C 192.463 80.211,194.738 78.296,196.469 79.862 M122.400 82.781 C 122.070 83.005,121.339 83.191,120.775 83.194 C 117.697 83.212,112.069 87.413,110.100 91.162 C 108.641 93.940,109.071 93.999,110.700 91.245 C 118.068 78.784,136.061 81.537,139.832 95.702 C 143.698 110.223,125.027 120.991,113.791 110.722 C 109.251 106.573,107.698 101.427,109.048 95.000 C 109.244 94.070,109.191 93.902,108.815 94.255 C 107.494 95.494,108.276 106.000,109.689 106.000 C 109.860 106.000,110.000 106.316,110.000 106.702 C 110.000 108.326,115.985 114.000,117.699 114.000 C 118.011 114.000,118.395 114.129,118.553 114.286 C 119.643 115.376,125.044 115.887,127.754 115.156 C 131.662 114.102,133.110 113.286,135.837 110.600 C 141.286 105.235,142.392 97.686,138.695 91.100 C 138.232 90.275,137.706 89.600,137.526 89.600 C 137.347 89.600,137.200 89.346,137.200 89.036 C 137.200 88.725,136.615 87.993,135.900 87.408 C 135.185 86.823,134.274 86.080,133.876 85.756 C 132.799 84.880,129.197 83.302,127.600 83.007 C 124.653 82.462,122.978 82.390,122.400 82.781 M166.400 82.782 C 166.070 83.005,165.490 83.191,165.111 83.194 C 162.970 83.213,157.685 86.809,155.990 89.400 C 154.970 90.959,154.782 106.435,155.761 108.320 C 156.449 109.645,159.837 112.840,161.200 113.447 C 167.646 116.321,170.741 116.321,177.200 113.448 C 178.732 112.767,182.909 108.396,183.744 106.600 C 184.154 105.720,184.663 104.665,184.875 104.256 C 185.973 102.142,185.329 94.656,183.800 91.764 C 182.352 89.024,178.830 85.200,177.755 85.200 C 177.450 85.200,177.200 85.059,177.200 84.888 C 177.200 83.652,167.819 81.824,166.400 82.782 M265.800 82.881 C 259.951 84.963,256.748 87.474,254.814 91.496 C 253.197 94.860,253.127 95.065,253.264 96.040 L 253.400 97.000 268.953 97.105 C 285.176 97.214,286.021 97.135,285.192 95.584 C 284.976 95.182,284.800 94.503,284.800 94.077 C 284.800 91.596,280.047 86.075,276.400 84.318 C 272.939 82.651,268.237 82.014,265.800 82.881 M311.600 82.782 C 311.270 83.005,310.612 83.191,310.137 83.194 C 308.668 83.204,305.096 85.272,303.000 87.325 L 301.000 89.284 300.975 98.742 L 300.950 108.200 301.175 98.856 L 301.400 89.512 303.530 87.554 C 314.141 77.801,330.637 85.522,329.924 99.908 C 329.226 114.009,311.946 120.142,302.508 109.638 C 301.797 108.847,301.212 108.445,301.208 108.743 C 301.183 110.473,306.478 113.924,311.046 115.156 C 313.756 115.887,319.157 115.376,320.247 114.286 C 320.405 114.129,320.863 114.000,321.267 114.000 C 321.670 114.000,322.000 113.820,322.000 113.600 C 322.000 113.380,322.284 113.200,322.631 113.200 C 323.397 113.200,328.400 108.130,328.400 107.354 C 328.400 107.049,328.580 106.800,328.800 106.800 C 329.020 106.800,329.200 106.451,329.200 106.024 C 329.200 105.597,329.360 105.148,329.556 105.027 C 330.395 104.509,330.859 97.553,330.225 95.000 C 329.420 91.759,325.462 86.000,324.040 86.000 C 323.798 86.000,323.600 85.856,323.600 85.680 C 323.600 84.143,313.276 81.650,311.600 82.782 M175.936 84.701 C 185.546 89.332,187.897 102.158,180.570 109.991 C 174.465 116.518,163.552 116.440,157.502 109.826 C 156.019 108.205,155.931 107.474,156.075 97.856 L 156.200 89.512 158.240 87.656 C 160.102 85.962,161.069 85.361,164.000 84.073 C 166.813 82.837,172.711 83.147,175.936 84.701 M275.758 84.597 C 280.411 86.799,284.772 92.471,284.447 95.900 C 284.410 96.290,281.058 96.400,269.148 96.400 L 253.895 96.400 254.110 95.075 C 254.864 90.432,259.482 85.475,264.400 84.031 C 265.390 83.741,266.380 83.437,266.600 83.356 C 267.959 82.855,273.729 83.638,275.758 84.597 M333.212 91.820 C 333.205 92.271,333.416 92.856,333.680 93.120 C 334.372 93.812,334.343 104.105,333.647 104.943 C 333.365 105.283,333.207 105.885,333.297 106.281 C 333.524 107.288,334.770 103.120,335.062 100.375 C 335.216 98.928,335.064 97.119,334.627 95.201 C 333.891 91.965,333.233 90.393,333.212 91.820 M189.295 99.000 C 189.296 102.988,189.330 103.192,189.656 101.178 C 189.869 99.860,189.869 98.069,189.655 96.778 C 189.330 94.820,189.294 95.044,189.295 99.000 M289.654 98.011 C 289.581 99.366,288.596 100.702,287.496 100.936 C 286.898 101.064,286.997 101.106,287.797 101.063 C 289.151 100.992,290.178 99.427,289.881 97.890 C 289.723 97.074,289.704 97.084,289.654 98.011 M331.496 109.494 C 329.524 112.686,326.746 115.324,323.943 116.666 C 322.538 117.338,321.932 118.000,322.722 118.000 C 324.973 118.000,334.254 108.521,333.116 107.383 C 333.009 107.276,332.280 108.226,331.496 109.494 " stroke="none" fill="#bdbdbd" fill-rule="evenodd"></path><path id="path3" d="M152.414 65.574 C 151.734 66.845,151.852 115.645,152.538 116.583 C 153.226 117.524,155.015 117.151,155.315 116.004 C 155.533 115.169,157.600 114.803,157.600 115.600 C 157.600 115.820,157.784 116.000,158.008 116.000 C 158.232 116.000,159.129 116.450,160.000 117.000 C 160.871 117.550,161.912 118.000,162.312 118.000 C 162.712 118.000,163.231 118.191,163.464 118.424 C 164.027 118.987,173.978 118.982,174.541 118.419 C 174.771 118.189,175.464 118.000,176.080 118.000 C 176.696 118.000,177.200 117.820,177.200 117.600 C 177.200 117.380,177.427 117.200,177.705 117.200 C 178.971 117.200,185.155 112.184,185.191 111.129 C 185.196 110.979,185.431 110.619,185.713 110.329 C 186.432 109.589,188.400 105.454,188.400 104.684 C 188.400 104.334,188.580 103.936,188.800 103.800 C 189.029 103.659,189.200 101.604,189.200 99.000 C 189.200 96.396,189.029 94.341,188.800 94.200 C 188.580 94.064,188.399 93.648,188.398 93.276 C 188.396 92.904,188.126 92.084,187.798 91.454 C 187.469 90.824,187.200 90.059,187.200 89.754 C 187.200 89.449,187.064 89.200,186.898 89.200 C 186.731 89.200,186.361 88.671,186.075 88.025 C 183.254 81.652,170.950 77.165,163.400 79.756 C 161.016 80.574,157.898 82.054,157.555 82.530 C 157.420 82.717,156.880 82.809,156.355 82.735 L 155.400 82.600 155.292 74.019 C 155.213 67.766,155.050 65.352,154.692 65.125 C 153.833 64.579,152.842 64.774,152.414 65.574 M297.700 65.065 C 296.987 65.353,296.967 116.007,297.680 116.720 C 298.501 117.541,299.836 117.278,300.327 116.200 C 300.938 114.860,301.765 114.940,304.520 116.601 C 305.796 117.370,307.155 118.000,307.540 118.000 C 307.925 118.000,308.436 118.196,308.675 118.435 C 309.250 119.010,319.162 118.998,319.738 118.422 C 319.970 118.190,320.664 118.000,321.280 118.000 C 321.896 118.000,322.402 117.865,322.405 117.700 C 322.407 117.535,323.099 117.069,323.943 116.666 C 325.414 115.961,326.679 115.025,328.768 113.094 C 330.140 111.826,333.200 107.004,333.200 106.110 C 333.200 105.697,333.416 105.144,333.680 104.880 C 334.347 104.213,334.347 93.787,333.680 93.120 C 333.416 92.856,333.200 92.226,333.200 91.720 C 333.200 91.214,333.065 90.798,332.900 90.795 C 332.735 90.793,332.240 90.028,331.800 89.095 C 330.892 87.172,325.946 82.000,325.014 82.000 C 324.676 82.000,324.400 81.864,324.400 81.698 C 324.400 81.531,323.905 81.185,323.300 80.929 C 316.650 78.107,310.218 78.369,304.077 81.712 C 300.792 83.500,300.863 83.664,300.723 74.006 C 300.586 64.632,300.369 63.988,297.700 65.065 M82.974 79.193 C 80.817 79.514,78.048 80.356,77.420 80.882 C 77.211 81.057,76.716 81.200,76.320 81.200 C 75.924 81.200,75.600 81.380,75.600 81.600 C 75.600 81.820,75.369 82.000,75.086 82.000 C 73.669 82.000,69.087 87.351,67.550 90.800 C 67.109 91.790,66.543 93.017,66.293 93.526 C 65.705 94.720,65.692 103.643,66.277 104.874 C 66.518 105.383,67.216 106.871,67.827 108.181 C 68.957 110.603,70.085 112.110,72.156 113.965 C 72.791 114.534,73.511 115.190,73.756 115.422 C 74.000 115.655,74.470 115.971,74.800 116.126 C 75.130 116.280,75.940 116.728,76.600 117.122 C 79.319 118.741,85.125 119.893,87.443 119.273 C 88.416 119.013,89.738 118.800,90.382 118.800 C 91.026 118.800,91.664 118.620,91.800 118.400 C 91.936 118.180,92.472 118.000,92.990 118.000 C 93.509 118.000,93.993 117.865,94.067 117.700 C 94.140 117.535,94.841 117.075,95.624 116.678 C 98.724 115.106,99.940 113.300,98.720 112.080 C 97.952 111.312,96.826 111.515,94.738 112.800 C 93.666 113.460,92.521 114.000,92.194 114.000 C 91.867 114.000,91.600 114.156,91.600 114.347 C 91.600 115.584,80.537 115.592,79.773 114.356 C 79.652 114.160,79.203 114.000,78.776 114.000 C 78.349 114.000,78.000 113.820,78.000 113.600 C 78.000 113.380,77.720 113.200,77.378 113.200 C 75.480 113.200,70.000 105.734,70.000 103.149 C 70.000 102.543,69.820 101.936,69.600 101.800 C 69.380 101.664,69.200 100.404,69.200 99.000 C 69.200 97.596,69.380 96.336,69.600 96.200 C 69.820 96.064,70.000 95.511,70.000 94.971 C 70.000 93.980,70.101 93.710,71.407 91.230 C 72.082 89.948,72.497 89.374,74.000 87.641 C 78.854 82.048,88.329 81.166,95.072 85.681 C 96.946 86.935,97.791 87.066,98.629 86.229 C 101.752 83.105,90.542 78.067,82.974 79.193 M266.248 79.270 C 264.734 79.421,263.303 79.737,263.068 79.972 C 262.833 80.207,262.321 80.400,261.931 80.400 C 260.553 80.400,253.678 85.138,253.619 86.128 C 253.609 86.308,253.090 87.208,252.466 88.128 C 250.980 90.318,250.000 92.348,250.000 93.238 C 250.000 93.631,249.820 94.064,249.600 94.200 C 249.371 94.341,249.200 96.396,249.200 99.000 C 249.200 101.604,249.371 103.659,249.600 103.800 C 249.820 103.936,250.000 104.463,250.000 104.971 C 250.000 108.273,257.869 117.200,260.781 117.200 C 261.011 117.200,261.200 117.380,261.200 117.600 C 261.200 117.820,261.614 118.000,262.120 118.000 C 262.626 118.000,263.242 118.202,263.489 118.449 C 264.113 119.073,274.276 119.084,274.899 118.461 C 275.153 118.207,275.729 117.987,276.180 117.971 C 276.631 117.955,277.540 117.597,278.200 117.177 C 278.860 116.756,279.760 116.246,280.200 116.043 C 281.855 115.280,284.064 112.862,283.930 111.959 C 283.638 109.992,281.489 109.960,279.400 111.891 C 274.913 116.038,268.098 116.645,261.323 113.500 C 258.462 112.172,254.000 106.848,254.000 104.762 C 254.000 104.343,253.820 104.000,253.600 104.000 C 253.380 104.000,253.200 103.377,253.200 102.616 L 253.200 101.232 270.636 101.116 L 288.071 101.000 288.869 100.014 C 289.688 99.003,289.688 98.871,288.893 94.800 C 287.718 88.791,280.371 80.400,276.284 80.400 C 275.996 80.400,275.568 80.208,275.333 79.973 C 274.717 79.357,269.462 78.950,266.248 79.270 M120.000 79.465 C 119.450 79.576,118.829 79.832,118.620 80.034 C 118.411 80.235,117.933 80.400,117.558 80.400 C 116.583 80.400,113.609 82.009,112.200 83.298 C 111.540 83.902,110.871 84.397,110.713 84.398 C 109.803 84.404,105.510 91.340,105.013 93.609 C 104.481 96.037,104.309 103.269,104.773 103.733 C 105.008 103.968,105.200 104.568,105.200 105.066 C 105.200 106.432,109.013 112.955,110.253 113.709 C 110.532 113.879,110.994 114.250,111.280 114.535 C 112.347 115.596,116.443 118.000,117.184 118.000 C 117.607 118.000,118.050 118.157,118.168 118.348 C 118.882 119.503,129.918 119.503,130.632 118.348 C 130.750 118.157,131.193 118.000,131.616 118.000 C 136.730 118.000,144.781 106.503,144.781 99.200 C 144.781 91.695,136.662 80.400,131.268 80.400 C 130.879 80.400,130.349 80.189,130.090 79.930 C 129.603 79.443,121.866 79.086,120.000 79.465 M193.862 79.931 C 193.110 80.762,193.042 81.310,193.566 82.305 C 194.389 83.868,196.000 87.649,196.000 88.016 C 196.000 88.233,196.159 88.723,196.353 89.105 C 196.681 89.750,197.046 90.613,197.959 92.900 C 198.289 93.726,199.002 95.447,200.074 98.000 C 200.305 98.550,200.652 99.313,200.847 99.695 C 201.041 100.077,201.200 100.752,201.200 101.195 C 201.200 101.638,201.380 102.000,201.600 102.000 C 201.820 102.000,202.000 102.349,202.000 102.776 C 202.000 103.203,202.160 103.652,202.356 103.773 C 202.551 103.894,202.833 104.477,202.982 105.069 C 203.130 105.662,203.600 106.867,204.026 107.748 C 204.452 108.629,204.800 109.589,204.800 109.881 C 204.800 110.172,204.965 110.723,205.166 111.105 C 205.600 111.928,206.486 113.975,207.374 116.208 C 208.153 118.168,209.287 119.002,210.307 118.365 C 211.032 117.913,213.200 113.561,213.200 112.558 C 213.200 112.251,213.380 112.000,213.600 112.000 C 213.820 112.000,214.000 111.638,214.000 111.195 C 214.000 110.752,214.159 110.077,214.353 109.695 C 214.548 109.313,214.933 108.460,215.209 107.800 C 217.017 103.486,217.585 102.110,218.100 100.800 C 219.477 97.302,220.255 97.002,221.207 99.600 C 221.570 100.590,222.076 101.906,222.333 102.524 C 223.102 104.380,224.462 107.746,224.788 108.600 C 225.328 110.015,225.894 111.348,226.959 113.711 C 227.531 114.982,228.000 116.256,228.000 116.541 C 228.000 117.647,229.850 118.901,230.699 118.370 C 231.597 117.809,232.145 116.784,234.047 112.100 C 234.292 111.495,234.652 110.687,234.847 110.305 C 235.041 109.923,235.200 109.428,235.200 109.203 C 235.200 108.979,235.650 107.863,236.200 106.723 C 236.750 105.583,237.200 104.324,237.200 103.925 C 237.200 103.526,237.380 103.200,237.600 103.200 C 237.820 103.200,238.000 102.786,238.000 102.280 C 238.000 101.774,238.148 101.189,238.328 100.980 C 238.509 100.771,239.156 99.340,239.767 97.800 C 242.017 92.128,242.427 91.130,242.847 90.305 C 243.041 89.923,243.200 89.433,243.200 89.216 C 243.200 88.849,244.811 85.068,245.634 83.505 C 246.623 81.629,245.750 79.200,244.088 79.200 C 243.433 79.200,242.000 80.677,242.000 81.352 C 242.000 81.715,241.841 82.323,241.647 82.705 C 241.452 83.087,241.111 83.850,240.887 84.400 C 240.664 84.950,240.181 86.120,239.814 87.000 C 238.761 89.522,238.428 90.329,238.000 91.400 C 237.021 93.847,236.684 94.645,236.353 95.295 C 236.159 95.677,236.000 96.167,236.000 96.384 C 236.000 96.751,234.389 100.532,233.566 102.095 C 233.365 102.477,233.200 102.954,233.200 103.155 C 233.200 104.053,230.272 110.400,229.858 110.400 C 229.603 110.400,229.147 109.815,228.844 109.100 C 227.710 106.424,227.110 104.977,226.813 104.200 C 226.645 103.760,226.324 102.950,226.100 102.400 C 225.876 101.850,225.192 100.140,224.580 98.600 C 223.968 97.060,223.165 95.080,222.795 94.200 C 221.418 90.918,221.200 89.622,221.200 84.718 C 221.200 79.269,221.013 78.860,218.885 79.647 C 218.027 79.964,218.000 80.153,218.000 85.787 C 218.000 89.396,217.848 91.600,217.600 91.600 C 217.380 91.600,217.200 91.962,217.200 92.405 C 217.200 92.848,217.035 93.523,216.834 93.905 C 215.843 95.788,214.400 99.289,214.400 99.811 C 214.400 100.135,214.220 100.400,214.000 100.400 C 213.780 100.400,213.600 100.762,213.600 101.205 C 213.600 101.648,213.441 102.323,213.247 102.705 C 213.052 103.087,212.711 103.850,212.487 104.400 C 212.264 104.950,211.793 106.057,211.441 106.860 C 211.088 107.664,210.800 108.491,210.800 108.698 C 210.800 108.906,210.458 109.385,210.041 109.763 C 209.267 110.463,208.523 109.426,207.199 105.800 C 207.038 105.360,206.679 104.460,206.400 103.800 C 206.121 103.140,205.755 102.240,205.587 101.800 C 205.285 101.008,204.343 98.731,203.519 96.800 C 203.285 96.250,202.961 95.440,202.800 95.000 C 202.639 94.560,202.303 93.705,202.054 93.100 C 201.804 92.495,201.436 91.595,201.236 91.100 C 201.036 90.605,200.226 88.607,199.436 86.660 C 198.646 84.713,198.000 82.868,198.000 82.560 C 198.000 82.252,197.820 82.000,197.600 82.000 C 197.380 82.000,197.200 81.668,197.200 81.262 C 197.200 79.540,195.007 78.666,193.862 79.931 M127.600 83.007 C 129.197 83.302,132.799 84.880,133.876 85.756 C 134.274 86.080,135.185 86.823,135.900 87.408 C 136.615 87.993,137.200 88.725,137.200 89.036 C 137.200 89.346,137.347 89.600,137.526 89.600 C 137.706 89.600,138.232 90.275,138.695 91.100 C 142.392 97.686,141.286 105.235,135.837 110.600 C 133.110 113.286,131.662 114.102,127.754 115.156 C 125.044 115.887,119.643 115.376,118.553 114.286 C 118.395 114.129,118.011 114.000,117.699 114.000 C 115.985 114.000,110.000 108.326,110.000 106.702 C 110.000 106.316,109.860 106.000,109.689 106.000 C 108.324 106.000,107.535 96.418,108.714 94.162 C 108.933 93.743,109.537 92.507,110.056 91.417 C 111.898 87.545,117.546 83.213,120.775 83.194 C 121.339 83.191,122.070 83.005,122.400 82.781 C 122.978 82.390,124.653 82.462,127.600 83.007 M173.000 83.101 C 175.033 83.560,177.200 84.482,177.200 84.888 C 177.200 85.059,177.450 85.200,177.755 85.200 C 178.830 85.200,182.352 89.024,183.800 91.764 C 185.329 94.656,185.973 102.142,184.875 104.256 C 184.663 104.665,184.154 105.720,183.744 106.600 C 182.909 108.396,178.732 112.767,177.200 113.448 C 170.741 116.321,167.646 116.321,161.200 113.447 C 159.837 112.840,156.449 109.645,155.761 108.320 C 154.782 106.435,154.970 90.959,155.990 89.400 C 157.685 86.809,162.970 83.213,165.111 83.194 C 165.490 83.191,166.070 83.005,166.400 82.782 C 167.043 82.348,170.384 82.509,173.000 83.101 M273.000 82.984 C 277.950 84.116,284.800 90.554,284.800 94.077 C 284.800 94.503,284.976 95.182,285.192 95.584 C 286.021 97.135,285.176 97.214,268.953 97.105 L 253.400 97.000 253.264 96.040 C 253.190 95.512,253.302 94.702,253.514 94.240 C 256.640 87.417,258.883 85.343,265.800 82.881 C 267.033 82.442,270.869 82.497,273.000 82.984 M318.200 83.098 C 320.105 83.555,323.600 85.226,323.600 85.680 C 323.600 85.856,323.798 86.000,324.040 86.000 C 325.462 86.000,329.420 91.759,330.225 95.000 C 330.859 97.553,330.395 104.509,329.556 105.027 C 329.360 105.148,329.200 105.597,329.200 106.024 C 329.200 106.451,329.020 106.800,328.800 106.800 C 328.580 106.800,328.400 107.049,328.400 107.354 C 328.400 108.130,323.397 113.200,322.631 113.200 C 322.284 113.200,322.000 113.380,322.000 113.600 C 322.000 113.820,321.670 114.000,321.267 114.000 C 320.863 114.000,320.405 114.129,320.247 114.286 C 317.402 117.131,307.600 115.243,303.000 110.964 L 301.000 109.104 301.000 99.195 L 301.000 89.286 303.000 87.326 C 305.096 85.272,308.667 83.204,310.137 83.194 C 310.612 83.191,311.270 83.005,311.600 82.782 C 312.262 82.335,315.710 82.500,318.200 83.098 " stroke="none" fill="#ffffff" fill-rule="evenodd"></path><path id="path4" d="M176.000 142.153 C 176.000 151.686,175.839 151.179,178.867 151.195 C 181.271 151.207,181.200 151.482,181.200 142.157 L 181.200 133.600 178.600 133.600 L 176.000 133.600 176.000 142.153 M130.892 142.700 L 131.000 151.000 135.441 151.113 C 139.038 151.204,139.978 151.109,140.390 150.613 C 140.669 150.276,141.084 150.000,141.311 150.000 C 143.524 150.000,145.683 146.173,145.713 142.198 C 145.739 138.616,143.902 135.200,141.949 135.200 C 141.563 135.200,141.136 135.020,141.000 134.800 C 140.857 134.568,138.660 134.400,135.768 134.400 L 130.784 134.400 130.892 142.700 M268.600 135.600 C 268.464 135.820,267.655 136.000,266.802 136.000 C 265.344 136.000,265.243 136.078,265.125 137.300 C 265.029 138.296,264.790 138.630,264.100 138.728 C 263.344 138.835,263.200 139.103,263.200 140.400 C 263.200 141.697,263.344 141.965,264.100 142.072 C 264.931 142.190,265.017 142.458,265.217 145.543 C 265.523 150.250,267.765 152.056,271.921 150.942 C 273.380 150.552,273.043 147.851,271.513 147.675 C 269.347 147.425,269.335 142.283,271.500 142.075 C 272.721 141.957,272.800 141.856,272.800 140.400 C 272.800 138.944,272.721 138.843,271.500 138.725 C 270.280 138.608,270.192 138.496,270.077 136.900 C 269.959 135.263,269.213 134.608,268.600 135.600 M139.315 138.771 C 142.032 142.001,140.309 147.870,136.744 147.529 L 135.400 147.400 135.286 142.832 C 135.164 137.910,135.274 137.618,137.264 137.606 C 137.955 137.602,138.675 138.011,139.315 138.771 M151.200 139.102 C 151.200 139.269,150.667 139.641,150.016 139.929 C 147.692 140.957,146.547 146.560,148.268 148.484 C 151.594 152.205,159.037 152.231,158.329 148.520 C 158.216 147.925,157.717 147.779,155.469 147.681 C 151.593 147.512,152.077 146.638,156.132 146.483 L 159.200 146.366 159.200 144.345 C 159.200 140.693,157.209 138.800,153.368 138.800 C 152.175 138.800,151.200 138.936,151.200 139.102 M161.200 147.600 L 161.200 156.400 163.600 156.400 L 166.000 156.400 166.000 153.424 C 166.000 150.181,166.329 149.625,167.688 150.577 C 171.147 153.000,175.378 147.519,174.000 142.401 C 173.169 139.313,170.020 137.781,167.605 139.290 C 166.985 139.677,166.717 139.677,166.330 139.290 C 166.056 139.016,164.817 138.800,163.520 138.800 L 161.200 138.800 161.200 147.600 M186.800 139.200 C 186.800 139.420,186.501 139.600,186.136 139.600 C 183.403 139.600,181.971 146.337,184.184 148.783 C 189.677 154.852,200.322 147.818,195.403 141.369 C 193.767 139.224,186.800 137.468,186.800 139.200 M197.200 139.020 C 197.200 139.161,197.454 139.754,197.765 140.338 C 198.781 142.247,200.000 145.180,200.000 145.716 C 200.000 146.004,200.150 146.411,200.334 146.620 C 202.509 149.095,202.158 152.674,199.720 152.875 C 198.234 152.997,198.200 153.036,198.200 154.600 L 198.200 156.200 200.447 156.318 C 203.853 156.498,205.677 154.588,207.628 148.800 C 208.036 147.590,208.996 144.845,209.761 142.700 L 211.153 138.800 208.836 138.800 L 206.519 138.800 205.808 141.819 C 204.884 145.743,204.125 145.737,203.228 141.800 L 202.591 139.000 199.896 138.882 C 198.413 138.817,197.200 138.879,197.200 139.020 M213.067 139.067 C 212.920 139.213,212.800 141.910,212.800 145.059 C 212.800 151.480,212.780 151.441,216.045 151.129 L 217.400 151.000 217.600 147.159 C 217.974 139.969,220.800 139.847,220.800 147.021 C 220.800 151.223,220.959 151.424,224.045 151.129 L 225.400 151.000 225.600 146.884 C 225.788 143.013,226.117 142.012,227.200 142.012 C 228.283 142.012,228.608 143.000,228.741 146.685 C 228.893 150.895,229.042 151.184,231.067 151.194 C 233.563 151.206,233.600 151.134,233.600 146.331 C 233.600 139.602,231.249 137.153,226.946 139.398 C 225.502 140.151,225.023 140.151,224.400 139.400 C 223.718 138.578,220.639 138.625,219.337 139.478 C 218.365 140.115,218.273 140.115,217.807 139.478 C 217.307 138.794,213.656 138.477,213.067 139.067 M239.200 139.102 C 239.200 139.269,238.667 139.641,238.016 139.929 C 235.692 140.957,234.547 146.560,236.268 148.484 C 239.594 152.205,247.037 152.231,246.329 148.520 C 246.216 147.925,245.717 147.779,243.469 147.681 C 239.593 147.512,240.077 146.638,244.132 146.483 L 247.200 146.366 247.200 144.345 C 247.200 140.693,245.209 138.800,241.368 138.800 C 240.175 138.800,239.200 138.936,239.200 139.102 M249.200 144.792 C 249.200 151.515,249.163 151.443,252.445 151.129 L 253.800 151.000 254.000 146.884 C 254.149 143.824,254.354 142.671,254.800 142.390 C 256.521 141.306,257.200 142.605,257.200 146.986 C 257.200 151.032,257.296 151.200,259.600 151.200 C 261.955 151.200,262.000 151.106,262.000 146.216 C 262.000 140.449,261.303 139.073,258.280 138.878 C 256.970 138.793,256.196 138.947,255.765 139.378 C 254.983 140.160,254.549 140.166,254.255 139.400 C 254.086 138.958,253.388 138.800,251.613 138.800 L 249.200 138.800 249.200 144.792 M154.290 141.524 C 155.447 142.259,155.069 143.793,153.697 143.926 C 152.100 144.079,151.573 143.135,152.613 141.985 C 153.399 141.117,153.574 141.069,154.290 141.524 M242.290 141.524 C 243.447 142.259,243.069 143.793,241.697 143.926 C 240.100 144.079,239.573 143.135,240.613 141.985 C 241.399 141.117,241.574 141.069,242.290 141.524 M168.818 142.621 C 169.386 143.307,169.481 144.827,169.059 146.507 C 168.725 147.838,167.063 148.038,166.414 146.826 C 165.032 144.243,167.125 140.581,168.818 142.621 M190.971 142.629 C 191.684 143.341,191.787 145.055,191.210 146.574 C 190.710 147.888,189.099 147.962,188.223 146.711 C 186.507 144.262,188.961 140.618,190.971 142.629 " stroke="none" fill="#00a2e8" fill-rule="evenodd"></path></g></svg>