<svg xmlns="http://www.w3.org/2000/svg" viewBox="0 0 376.09 53.96"><defs><style>.cls-1{fill:#424e59;}.cls-2{fill:#00a0dd;}</style></defs><title>Asset 49</title><g id="Layer_2" data-name="Layer 2"><g id="Layer_1-2" data-name="Layer 1"><path class="cls-1" d="M376.09,7.31A7.51,7.51,0,1,1,368.6,0,7.34,7.34,0,0,1,376.09,7.31Zm-13.14,0a5.66,5.66,0,0,0,5.7,5.84,5.59,5.59,0,0,0,5.57-5.79,5.64,5.64,0,1,0-11.27,0Zm4.5,3.83h-1.69V3.83a14.82,14.82,0,0,1,2.81-.22,4.55,4.55,0,0,1,2.54.53,2,2,0,0,1,.71,1.6,1.87,1.87,0,0,1-1.52,1.69v.09a2.16,2.16,0,0,1,1.34,1.78,5.6,5.6,0,0,0,.53,1.83h-1.83a6.22,6.22,0,0,1-.58-1.78c-.13-.8-.58-1.16-1.52-1.16h-.8Zm0-4.14h.8c.94,0,1.69-.31,1.69-1.07s-.49-1.11-1.56-1.11a4.08,4.08,0,0,0-.94.09Z"/><path class="cls-2" d="M38.6,4.71a.71.71,0,0,1,.81.81V53.1c0,.59-.27.86-.81.86H32.26c-.54,0-.81-.27-.81-.86V5.51a.71.71,0,0,1,.81-.81Z"/><path class="cls-2" d="M70.33,14.82c.38,0,.54.16.54.55v6.2a1.06,1.06,0,0,1-.64,1L55.7,28.93,70.22,35.3a1,1,0,0,1,.64.93v6.2c0,.38-.16.6-.54.6h-1a2.07,2.07,0,0,1-.7-.16L45.38,32.22a.94.94,0,0,1-.65-.93V26.51a1,1,0,0,1,.65-.93L68.66,14.93a2.35,2.35,0,0,1,.7-.11Z"/><path class="cls-2" d="M.54,43C.16,43,0,42.87,0,42.49v-6.2a1.06,1.06,0,0,1,.64-1l14.52-6.37L.64,22.56A1,1,0,0,1,0,21.63v-6.2c0-.38.16-.6.54-.6h1a2.07,2.07,0,0,1,.7.16L25.49,25.63a.94.94,0,0,1,.65.93v4.78a1,1,0,0,1-.65.93L2.2,42.93a2.35,2.35,0,0,1-.7.11Z"/><path class="cls-1" d="M101.41,14.82a1.08,1.08,0,0,1,.58.12,1.19,1.19,0,0,1,.34.4L114.15,37a.47.47,0,0,0,.48.28h.2a.49.49,0,0,0,.44-.28l11.64-21.68a.92.92,0,0,1,.93-.52h5.28q.48,0,.58.26a.84.84,0,0,1-.1.67L120.39,40a6.55,6.55,0,0,1-2,2.46,4.16,4.16,0,0,1-2.26.6h-2.34a5.06,5.06,0,0,1-2.6-.6,6.24,6.24,0,0,1-2-2.46L95.81,15.75a.84.84,0,0,1-.1-.67q.1-.26.62-.26Z"/><path class="cls-1" d="M196.51,14.82a.78.78,0,0,1,.89.89V26.18h18.86V15.71a.78.78,0,0,1,.89-.89h4.35q.93,0,.93.89V42.14q0,.89-.93.89h-4.35a.78.78,0,0,1-.89-.89V31.42H197.4V42.14a.78.78,0,0,1-.89.89h-4.35q-.93,0-.93-.89V15.71q0-.89.93-.89Z"/><path class="cls-1" d="M281.23,14.82a.78.78,0,0,1,.89.89V31.78a11.46,11.46,0,0,0,.26,2.68,3.62,3.62,0,0,0,.87,1.69,3.36,3.36,0,0,0,1.63.89,10.74,10.74,0,0,0,2.6.26h11.16a10.74,10.74,0,0,0,2.6-.26,3.36,3.36,0,0,0,1.63-.89,3.48,3.48,0,0,0,.85-1.69,12.42,12.42,0,0,0,.24-2.68V15.71a.78.78,0,0,1,.89-.89h4.39a.78.78,0,0,1,.89.89V32.39a17.49,17.49,0,0,1-.6,4.94,7.28,7.28,0,0,1-2,3.3,8,8,0,0,1-3.51,1.83,20.9,20.9,0,0,1-5.22.56H287.24a20.64,20.64,0,0,1-5.2-.56,7.93,7.93,0,0,1-3.49-1.83,7.4,7.4,0,0,1-2-3.3,16.93,16.93,0,0,1-.63-4.94V15.71q0-.89.93-.89Z"/><path class="cls-1" d="M154.68,20.42h12a10.73,10.73,0,0,1,2.6.26,3.38,3.38,0,0,1,1.63.89,3.62,3.62,0,0,1,.87,1.69A11.31,11.31,0,0,1,172,25.9v6a12.58,12.58,0,0,1-.16,2.1.27.27,0,0,0,.09.25l5.15,3.58s.22.2.3,0,.13-.33.18-.51a17.52,17.52,0,0,0,.6-4.94V25.46a17.3,17.3,0,0,0-.6-4.92,7.28,7.28,0,0,0-2-3.29,8.12,8.12,0,0,0-3.51-1.85,20.22,20.22,0,0,0-5.22-.58H154.44a20,20,0,0,0-5.2.58,8.94,8.94,0,0,0-2.38,1c-.42.22,0,.47,0,.47l5.34,3.71a.34.34,0,0,0,.13,0,19.37,19.37,0,0,1,2.3-.21"/><path class="cls-1" d="M166.69,37.4h-12a10.74,10.74,0,0,1-2.6-.26,3.37,3.37,0,0,1-1.63-.89,3.62,3.62,0,0,1-.87-1.69,11.31,11.31,0,0,1-.26-2.64v-6a12.58,12.58,0,0,1,.16-2.1.27.27,0,0,0-.09-.25l-5.14-3.58s-.22-.2-.3,0-.13.33-.18.51a17.52,17.52,0,0,0-.6,4.94v6.93a17.3,17.3,0,0,0,.6,4.92,7.28,7.28,0,0,0,2,3.29,8.12,8.12,0,0,0,3.51,1.85,20.22,20.22,0,0,0,5.22.58h12.45a20,20,0,0,0,5.2-.58,8.94,8.94,0,0,0,2.38-1c.42-.22,0-.47,0-.47l-5.34-3.71a.33.33,0,0,0-.13,0,19.57,19.57,0,0,1-2.3.21"/><path class="cls-1" d="M267.7,42.53l-3.22-2.33-11.71-8.65-1.1-.8L245.18,26a8.66,8.66,0,0,0-1.18-.75,6.65,6.65,0,0,0-1.53-.59,12.27,12.27,0,0,0-2-.28V15.7a.78.78,0,0,0-.88-.88h-4.31q-.92,0-.92.88V42.15q0,.88.92.88h4.31a.78.78,0,0,0,.88-.88V30.1h1a1.38,1.38,0,0,1,.67.21l12.11,9.08a1.48,1.48,0,0,0,.31.16l4.26,3.19a1.41,1.41,0,0,0,.46.22,3.25,3.25,0,0,0,.78.07h7.42S268.4,43,267.7,42.53Z"/><path class="cls-1" d="M268.21,14.82h-7.33a3.32,3.32,0,0,0-.78.06,1.46,1.46,0,0,0-.46.21l-.72.53h0l-10.4,7.61a.28.28,0,0,0,0,.49l3.8,2.74a.56.56,0,0,0,.6,0l14.73-10.63.07-.06.67-.48C269.05,14.81,268.21,14.82,268.21,14.82Z"/><path class="cls-1" d="M329.63,21a2,2,0,0,1,1.65-.61h21.24a.78.78,0,0,0,.89-.89V15.7a.78.78,0,0,0-.89-.89h-22.4q-3.67,0-5.4,1.81A6.59,6.59,0,0,0,323,21.39v2.94a7,7,0,0,0,1.77,5.14A7.11,7.11,0,0,0,330,31.26h15.11q2.09,0,2.09,2.26v1.65a2.58,2.58,0,0,1-.48,1.65,2,2,0,0,1-1.65.6H323.95c-.62,0-.93.3-.93.89v3.83q0,.89.93.89h22.32q3.67,0,5.4-1.81a6.6,6.6,0,0,0,1.73-4.76V33.24a7,7,0,0,0-1.77-5.14,7.12,7.12,0,0,0-5.28-1.79H331.24q-2.1,0-2.1-2.26V22.68A2.57,2.57,0,0,1,329.63,21Z"/></g></g></svg>